<?xml version="1.0" encoding="UTF-8"?>
<svg id="_圖層_2" data-name="圖層 2" xmlns="http://www.w3.org/2000/svg" viewBox="0 0 120 75.69">
  <defs>
    <style>
      .cls-1 {
        fill: #736357;
      }
    </style>
  </defs>
  <g id="_圖層_1-2" data-name="圖層 1">
    <path class="cls-1" d="M0,59.37H120v1.43H0v-1.43ZM0,.28H34.81V5.1H0V.28ZM14.74,10.62h5.44V51.06h-5.44V10.62Zm33.56,30.18h-5.44V0h5.44V40.8Zm-5.52,5.62h31.69v4.92h-31.69v-4.92Zm39.01-10.36v15.1h5.44v-14.29l10.72-12.86,15.54,27.13h6.43l-18.32-31.33L117.66,.08h-6.69l-29.19,35.98Zm5.44-14.92V.18h-5.44V25.9l5.44-4.76Zm9.29,54.39c1.87,0,3.12-.99,3.12-2.58,0-.71-.26-1.33-.81-1.79-.36-.36-.81-.54-1.61-.62l-.99-.18c-.44-.08-.89-.26-1.25-.54-.26-.26-.44-.62-.44-1.07,0-.99,.71-1.69,1.87-1.69,.99,0,1.51,.26,2.14,.81l.62-.62c-.81-.71-1.51-.99-2.68-.99-1.79,0-2.86,.99-2.86,2.58,0,.71,.26,1.25,.71,1.69,.36,.36,.99,.54,1.69,.71l1.07,.18c.62,.08,.89,.18,1.17,.44,.26,.26,.44,.62,.44,1.17,0,1.07-.81,1.69-2.14,1.69-.99,0-1.69-.26-2.5-.99l-.62,.62c.83,.83,1.71,1.19,3.06,1.19m-58.66-9.11h6.25v.89h-6.25v-.89Zm2.68,1.87h.99v7.24h-.99v-7.24Zm-8.67,7.32h.99v-9.19h-.99v9.19Zm39.21-.08h5.81v-.89h-4.82v-7.42h4.82v-.89h-5.81v9.19Zm5.08-5h-2.94v.89h2.94v-.89Zm-23.85,5.16c1.07,0,1.87-.44,2.5-1.07l-.62-.62c-.54,.54-1.07,.89-1.87,.89-.62,0-1.17-.26-1.51-.62-.54-.62-.62-1.17-.62-3.12s.08-2.5,.62-3.12c.36-.44,.99-.62,1.51-.62,.89,0,1.33,.36,1.87,.89l.62-.62c-.71-.71-1.43-1.07-2.5-1.07-.89,0-1.69,.36-2.32,.89-.89,.81-.89,1.69-.89,3.57s0,2.76,.81,3.67c.71,.65,1.51,.99,2.4,.99m8.49-6.25h-.99v-3.04h.99v3.04Zm-.97,6.09v-5h5.36v-4.19h.89v9.19h-.99v-4.11h-4.37v4.11h-.89Zm27.84,0h0l.99,.08v-9.19h-.99v9.11Zm-5.79-9.11v9.11h.99v-7.32l3.75,5.62v-1.79l-3.77-5.72h-.99v.1h.02Zm-61.52,6.43v2.68h.99v-2.6l1.96-2.32,2.76,4.92h1.17l-3.31-5.62,2.86-3.57h-1.17l-4.29,5.26m.02-1.53v-3.75h-.99v4.64"/>
  </g>
</svg>