<?xml version="1.0" encoding="UTF-8"?>
<svg id="_圖層_2" data-name="圖層 2" xmlns="http://www.w3.org/2000/svg" viewBox="0 0 211.48 39.9">
  <defs>
    <style>
      .cls-1 {
        fill: #005099;
      }
    </style>
  </defs>
  <g id="_圖層_1-2" data-name="圖層 1">
    <path class="cls-1" d="M104.06,2h5.56V20.16c0,7.36-4.3,12.12-10.95,12.12s-10.99-4.76-10.99-12.12V2h5.56V20.09c0,4.32,1.98,6.79,5.42,6.79s5.39-2.48,5.39-6.79V2Zm-19.78,14.91c0,8.64-6.43,14.91-15.28,14.91h-7.6V2h7.6c8.86,0,15.28,6.27,15.28,14.91Zm-5.6,0c0-5.78-4.04-9.81-9.83-9.81h-1.89V26.73h1.86c5.81,0,9.87-4.03,9.87-9.81ZM191.43,2V7.1h7.25V31.83h5.56V7.1h7.25V2h-20.06ZM145.61,.21l14.36,31.61h-5.85l-2.73-6.19h-11.6l-2.73,6.19h-9.37l-8.15-11.65h-.25v11.65h-5.56V2h8.44c6.21,0,10.22,3.66,10.22,9.33,0,3.97-2.84,7.32-6.75,8.35l6.8,9.51L145.61,.21Zm-18.78,11.01c0-2.59-1.75-4.19-4.58-4.19h-2.96V15.42h2.96c2.76,0,4.58-1.9,4.58-4.19Zm22.37,9.47l-3.59-8.17-3.62,8.17h7.22Zm33.2,11.14h5.56V2h-5.56V31.83Zm-16.11-11.17l-7.63-18.65h-6.1l13.62,31.67,13.62-31.67h-5.92l-7.59,18.65ZM16.74,8.63c0,.83,.67,1.51,1.51,1.51s1.51-.67,1.51-1.51-.67-1.51-1.51-1.51-1.51,.67-1.51,1.51Zm41.9,8.07c0,8.77-7.11,15.88-15.88,15.88-1.53,0-3.01-.22-4.4-.62h0s-2.68,7.95-2.68,7.95l-7.37-8.19-7.62,8.16L14.2,15.91,0,0H12.34c3.01,0,8.4,.11,14.44,5l16.21,13.16h-7.29l-11.75-9.53c-3.5-2.84-7.22-4-10.6-4h-2.87l23.05,24.75s1.82-5.54,1.82-5.53c1.87,1.94,4.5,3.16,7.42,3.16,5.69,0,10.3-4.61,10.3-10.3s-4.61-10.3-10.3-10.3c-2.69,0-5.13,1.03-6.96,2.72l-4.36-3.53c2.88-2.93,6.89-4.76,11.32-4.76,8.77,0,15.88,7.11,15.88,15.88ZM24.84,27.85l-4.54-5.1,2.26,8.32,2.29-3.23Z"/>
  </g>
</svg>