<?xml version="1.0" encoding="UTF-8"?>
<svg id="_圖層_2" data-name="圖層 2" xmlns="http://www.w3.org/2000/svg" viewBox="0 0 212.99 26.36">
  <defs>
    <style>
      .cls-1 {
        fill: #48086b;
      }
    </style>
  </defs>
  <g id="_圖層_1-2" data-name="圖層 1">
    <g id="Group_38" data-name="Group 38">
      <g id="Group_5" data-name="Group 5">
        <g id="Group_4" data-name="Group 4">
          <g id="Group_3" data-name="Group 3">
            <g id="Group_2" data-name="Group 2">
              <path id="Path_3" data-name="Path 3" class="cls-1" d="M76.87,.34V5.05h-11.58v5.81h11.58v4.71h-11.58v10.45h-5.54V.34h17.12Z"/>
              <path id="Path_4" data-name="Path 4" class="cls-1" d="M98.43,21.31v4.7h-18.06V.34h17.98V5.05h-12.45v5.81h12.44v4.7h-12.44v5.75h12.52Z"/>
              <path id="Path_5" data-name="Path 5" class="cls-1" d="M101.92,.34h11.74c1.98-.07,3.9,.71,5.26,2.16,1.34,1.41,2.06,3.28,2.02,5.22,.1,2.67-1.41,5.14-3.82,6.28,1.12,.59,2.18,2.16,3.19,4.74,1.01,2.57,1.96,4.92,2.92,7.27h-5.92c-.34-.9-.93-2.46-1.83-4.83-.56-1.67-1.43-3.22-2.55-4.58-.51-.61-1.26-.98-2.06-1.01h-3.39v10.42h-5.54V.34Zm5.54,4.71v5.85h4.73c.81,.04,1.61-.23,2.22-.76,.57-.57,.87-1.37,.82-2.17,0-1.94-1.06-2.91-3.17-2.9h-4.6Z"/>
              <path id="Path_6" data-name="Path 6" class="cls-1" d="M143.74,21.31v4.7h-16.97V.34h5.55V21.31h11.42Z"/>
              <path id="Path_7" data-name="Path 7" class="cls-1" d="M153.77,0c3.51-.12,6.89,1.33,9.21,3.96,2.3,2.51,3.56,5.81,3.52,9.22,.05,3.43-1.23,6.74-3.57,9.24-4.88,5.08-12.95,5.24-18.03,.36-.12-.11-.23-.22-.34-.34-2.34-2.51-3.61-5.83-3.56-9.26-.04-3.41,1.22-6.71,3.53-9.22C146.87,1.33,150.25-.12,153.77,0Zm0,21c1.93,.07,3.79-.72,5.08-2.16,1.33-1.58,2.02-3.6,1.93-5.67,.1-2.07-.59-4.1-1.93-5.68-2.74-2.81-7.24-2.87-10.05-.14-.05,.04-.09,.09-.14,.14-1.34,1.58-2.03,3.61-1.94,5.68-.09,2.07,.6,4.09,1.94,5.67,1.3,1.44,3.17,2.23,5.1,2.16h0Z"/>
              <path id="Path_8" data-name="Path 8" class="cls-1" d="M188.11,18.18v5.61c-2.62,1.65-5.65,2.54-8.75,2.55-3.54,.17-6.99-1.21-9.44-3.78-4.76-5.35-4.67-13.44,.19-18.7,2.53-2.6,6.05-4,9.68-3.86,2.86-.09,5.67,.7,8.06,2.26V7.98c-2.24-1.6-4.91-2.52-7.66-2.63-2.15-.08-4.25,.71-5.81,2.19-1.5,1.47-2.32,3.5-2.25,5.6-.14,4.2,3.14,7.72,7.34,7.86,.19,0,.38,0,.58,0,1.13,0,2.25-.17,3.32-.52,1.65-.63,3.24-1.4,4.75-2.3Z"/>
              <path id="Path_9" data-name="Path 9" class="cls-1" d="M212.99,.34l-10.18,12.08,10.18,13.6h-6.93l-8.83-12.03v12.03h-5.54V.34h5.54V11.9L206.89,.34h6.1Z"/>
              <path id="Path_10" data-name="Path 10" class="cls-1" d="M39.78,.34h-5.6l-5.75,16.58L22.1,.34h-4.38l-6.31,16.58L5.61,.34H0L9.13,26.01h4.35l6.13-15.75,.28-.73,6.45,16.48h4.35L39.78,.34Z"/>
              <path id="Path_11" data-name="Path 11" class="cls-1" d="M59.77,26.01L49.89,.34h-6.42l-8.99,25.67h5.88l1.66-5.07h0l1.47-4.49h0l3.27-9.98,2.79,7.72h0l3.39,9.38h0l.88,2.43h5.96Z"/>
            </g>
          </g>
        </g>
      </g>
    </g>
  </g>
</svg>