<?xml version="1.0" encoding="UTF-8"?>
<svg id="_圖層_2" data-name="圖層 2" xmlns="http://www.w3.org/2000/svg" viewBox="0 0 94.42 89.71">
  <defs>
    <style>
      .cls-1 {
        fill: #117bb3;
      }
    </style>
  </defs>
  <g id="_圖層_1-2" data-name="圖層 1">
    <g>
      <path class="cls-1" d="M90.3,81.74c-.97-.97-2.14-1.36-3.31-1.36-2.53,0-4.67,2.14-4.67,4.67,0,1.17,.39,2.34,1.36,3.31s1.95,1.36,3.31,1.36c1.17,0,2.34-.58,3.31-1.36,.97-.97,1.36-2.14,1.36-3.31,0-1.36-.39-2.53-1.36-3.31m-3.31,7.4c-1.17,0-2.14-.39-2.92-1.17-.78-.78-1.17-1.75-1.17-2.92s.39-2.14,1.17-2.92c.78-.78,1.75-1.17,2.92-1.17s2.14,.39,2.92,1.17c.78,.78,1.17,1.75,1.17,2.92,.19,2.14-1.75,4.09-4.09,4.09Z"/>
      <path class="cls-1" d="M89.33,87.77l-1.75-2.92c.39,0,.78-.19,.97-.39,.19-.19,.39-.58,.39-.97s-.19-.78-.39-.97c-.39-.39-.78-.39-1.36-.39h-1.95v5.84h.58v-5.25h1.36c.39,0,.78,.19,.97,.39,.19,.19,.19,.39,.19,.58,0,.78-.78,.97-1.36,.97h-.58l.19,.39,1.75,2.92h.97"/>
      <path class="cls-1" d="M45.93,89.33H14.21c-7.98,0-12.45-2.92-12.84-15.18-.39-10.12,4.67-13.62,9.54-14.98,8.17-2.53,18.49-.78,18.49-.58v10.12c-3.7-.58-9.93-.19-9.93-.19-3.11,.39-4.67,1.95-4.67,5.06,.19,3.5,1.75,4.48,3.5,4.67h14.01v-25.69c0-1.36-.19-2.72-1.36-3.5-1.36-.97-9.54-1.56-13.04,0-1.75,.78-1.95,2.53-2.14,4.67H2.53c.19-4.48-.58-12.26,7.59-14.98,3.89-1.36,21.8-3.7,29.78,.97,4.28,2.53,5.64,6.03,5.64,10.7v38.92"/>
      <path class="cls-1" d="M51.57,38.34h30.55c6.42,.19,9.34,4.28,10.31,6.81,3.11,6.62,2.34,20.24-.78,24.91-2.72,3.89-6.42,5.45-10.12,5.45h-13.82v-10.7h7.59c3.89,0,6.23,0,6.23-7.98,0-4.67-.19-7.78-4.48-7.78h-12.45v40.28h-13.04V38.34"/>
      <path class="cls-1" d="M34.06,0h8.76V13.62L51.57,0h10.51l-9.34,13.82h2.34c3.7,0,6.23,3.11,6.23,6.23v13.23h-8.56v-11.29c0-.78-.58-1.36-1.36-1.36h-8.37v12.45h-8.76V0"/>
      <polyline class="cls-1" points="0 0 9.73 0 17.13 13.82 24.33 0 34.06 0 21.6 22.19 21.6 33.28 12.84 33.28 12.84 21.8 0 0"/>
      <path class="cls-1" d="M64.8,0h8.95V13.62L82.51,0h10.51l-9.34,13.82h2.34c3.7,0,6.23,3.11,6.23,6.23v13.23h-8.95v-11.29c0-.78-.58-1.36-1.36-1.36h-8.37v12.45h-8.95V0"/>
    </g>
  </g>
</svg>