<?xml version="1.0" encoding="UTF-8"?>
<svg id="_圖層_2" data-name="圖層 2" xmlns="http://www.w3.org/2000/svg" viewBox="0 0 194.52 54.24">
  <defs>
    <style>
      .cls-1 {
        fill: #e40723;
      }

      .cls-2 {
        fill: #e3011d;
      }

      .cls-3 {
        fill: #ef7483;
      }

      .cls-4 {
        fill: #e3001c;
      }
    </style>
  </defs>
  <g id="_圖層_1-2" data-name="圖層 1">
    <g>
      <path class="cls-4" d="M137.2,24.59c-.02,6.82,.34,13.64,.44,20.44,.03,2.19-.03,4.39,0,6.58l-7.09,.72V1.91l7.06,.75,7.99,26.27-.29-25.14,6.78,1.25V49.28s-6.27,1.04-6.27,1.04c-2.8-9.3-5.79-18.55-8.47-27.89-.08-.02-.14-.03-.14-.02-.2,.61-.08,1.56,0,2.19Z"/>
      <path class="cls-4" d="M71.64,1.19V44.6c0,4.02-3.48,7.66-7.46,8.02-6.37,.57-14.05-1.77-13.68-9.45V3.36s7.24-.87,7.24-.87V43.01c0,.14,.35,.95,.46,1.13,.79,1.26,3.89,1.74,5.05,.9,.46-.34,1.01-1.34,1.01-1.88V1.77l7.38-.58Z"/>
      <path class="cls-4" d="M173.24,10.29v6.5l-5.35-1.44v30.12l-6.66,1.81V13.76l-5.35-1.01V5.67c5.88,1.2,11.69,2.73,17.37,4.62Z"/>
      <path class="cls-4" d="M13.32,13.61v27.01c-2.34-1.01-4.63-2.29-6.7-3.78C-5.34,28.23,.59,20.04,11.15,14.55c.68-.35,1.44-.81,2.17-.94Z"/>
      <path class="cls-4" d="M181.2,40.63V13.61c.64,.08,1.3,.49,1.88,.79,3.8,1.94,9.11,5.39,10.78,9.47,3.28,8-6.61,14.03-12.66,16.76Z"/>
      <path class="cls-2" d="M190.61,43.37c1.23-.33,1.15,1.11,1.95,1.73,.75-.63,.75-2.06,1.95-1.73v3.9h-.72v-2.6l-1.16,1.73-1.3-1.73v2.6h-.72v-3.9Z"/>
      <polygon class="cls-1" points="189.74 43.37 189.74 44.1 188.58 44.09 188.58 47.27 187.71 47.27 187.71 44.09 186.55 44.1 186.56 43.37 189.74 43.37"/>
      <path class="cls-3" d="M137.35,22.43c-.27,.59-.14,1.48-.14,2.17-.33-.82-.06-1.87-.14-2.74,.24,0,.24,.4,.29,.58Z"/>
      <path class="cls-4" d="M125.2,8.77c-.24-7.26-6.84-9.2-13.06-8.69-5.19,.42-8.32,3.27-8.66,8.55V45.47c.49,7.68,6.11,9.43,12.94,8.57,5.41-.68,8.43-3.44,8.78-9V8.77Zm-7.39,34.82c-.16,1.53-.36,2.61-2.02,3.04-2.04,.53-4.74,.13-4.79-2.46V9.93c.17-1.58,1.04-2.31,2.58-2.49,2.74-.31,4.05,.64,4.24,3.35,.74,10.62-.57,22.09,0,32.8Z"/>
      <path class="cls-4" d="M98.71,8.77c-.43-5.94-4.86-8.27-10.35-8.45l-10.93,.44V53.48l7.38,.29v-17.91c2.98,0,5.9,.21,8.72-.9,3.31-1.31,4.94-4.21,5.18-7.69,.41-6-.33-12.46,0-18.5Zm-7.38,16.34c-.12,1.71-.46,2.94-2.31,3.33-.24,.05-1.21,.21-1.38,.21h-2.6s-.22-.2-.22-.22V7.83c3.04-.22,6.16-.76,6.49,3.12,.33,3.82,.29,10.29,.02,14.15Z"/>
      <path class="cls-4" d="M45.3,13.98c-.21-1.47-.6-2.95-1.44-4.2-4.02-5.9-13.49-2.16-18.94-.63V45.09c5.04,1.26,12.59,4.48,17.31,1.06,1.86-1.35,2.92-3.77,3.08-6.02,.62-8.44-.48-17.63,0-26.15Zm-6.66,24.27c-.37,3.99-4.6,2.53-7.17,1.82l-.07-25.65c0-.21,.08-.25,.25-.33,.43-.22,2.77-.65,3.34-.71,2.22-.21,3.47,.42,3.65,2.77,.56,7.1-.43,14.93,0,22.11Z"/>
    </g>
  </g>
</svg>