<?xml version="1.0" encoding="UTF-8"?>
<svg id="_圖層_2" data-name="圖層 2" xmlns="http://www.w3.org/2000/svg" viewBox="0 0 172.45 81.93">
  <defs>
    <style>
      .cls-1 {
        fill: #003f86;
      }

      .cls-2 {
        fill: #32adc6;
      }

      .cls-3 {
        fill: none;
      }
    </style>
  </defs>
  <g id="_圖層_2-2" data-name="圖層 2">
    <g>
      <path class="cls-2" d="M19.79,10.51l6.76,17.63h-7.08l-1.44-3.82h-7.31l-1.55,3.82h-2.76L13.6,10.51h6.19Zm-8.37,12.04h5.96l-2.86-7.81-3.09,7.81Z"/>
      <polygon class="cls-2" points="35.48 10.51 35.48 26.37 45.46 26.37 45.46 28.14 28.44 28.14 28.44 10.51 35.48 10.51"/>
      <polygon class="cls-2" points="62.77 10.51 62.77 12.28 53.97 12.28 53.97 18.16 61.44 18.16 61.44 19.93 53.97 19.93 53.97 28.14 46.93 28.14 46.93 10.51 62.77 10.51"/>
      <path class="cls-2" d="M76.16,10.51l6.76,17.63h-7.08l-1.44-3.82h-7.31l-1.55,3.82h-2.76l7.18-17.63h6.19Zm-8.37,12.04h5.96l-2.86-7.81-3.09,7.81Z"/>
      <g>
        <path class="cls-3" d="M46.93,37.5c-8.62,0-15.33,1.92-20.07,4.99-.06,.05-.13,.09-.19,.13-5.12,3.78-7.85,8.16-8.21,13.13,0,.04,0,.08-.01,.12-.02,.33-.03,.66-.03,1,0,10.29,10.73,19.54,28.51,19.54,14.44,0,24.98-7.52,36.19-14.66-8.27-10.04-20.53-24.25-36.19-24.25Z"/>
        <path class="cls-2" d="M103.23,62.51L172.45,28.48l-10.8-13.56-20.88,12.42c-3.67,2.34-27.82,16.55-45.12,26.91-7.26-6.96-23.28-20.35-47.55-20.76-.39,0-.78-.01-1.17-.01h-.04c-1-.06-1.99-.11-2.98-.11-11.76,0-22.09,2.34-30.7,6.97C4.45,45.05,0,50.69,0,57.1c0,7.09,4.33,12.99,12.88,17.56,10.14,5.42,25.34,6.94,33.93,6.94,17.67,0,39.41-10.92,43.64-12.95,1.08,1.1,2.22,2.1,3.39,3.03,.09,.07,.17,.13,.26,.2l13.03-6.26c-1.39-1.02-2.7-2.08-3.89-3.11Zm-56.3,13.91c-17.78,0-28.51-9.25-28.51-19.54,0-.34,.01-.67,.03-1,0-.04,0-.08,.01-.12,.35-4.97,3.09-9.34,8.21-13.13,.06-.05,.13-.09,.19-.13,4.74-3.07,11.45-4.99,20.07-4.99,15.66,0,27.91,14.21,36.19,24.25-11.21,7.15-21.75,14.66-36.19,14.66Z"/>
      </g>
      <path class="cls-1" d="M163.49,59.7c0-3.1-1.01-6.06-3.03-8.89-2.02-2.83-4.9-5.28-8.64-7.37-2.33-1.3-5.93-2.95-10.78-4.95-2.63-1.33-5.59-2.68-8.88-3.94-15.5-5.9-21.58-10.55-23.09-11.85-1.91-1.61-2.84-3.28-2.84-5.12,0-2.48,1.54-4.71,4.7-6.8,3.35-2.22,7.69-3.34,12.91-3.34,13.72,0,19.34,8.25,21.12,11.8l.71,1.5,13.75-8.21C147.78-.54,122.78,0,122.78,0,113.46,0,105.79,2.02,99.76,6.05c-6.03,4.03-9.05,8.84-9.05,14.42,0,3.21,1.02,6.15,3.07,8.83,2.05,2.68,5.05,5.12,9.01,7.34,1.77,.99,4.1,2.14,6.96,3.44,3.34,1.76,7.43,3.74,12.37,5.71,9.26,3.69,14.99,6.11,17.02,7.23,2.28,1.23,8.19,5.84,8.19,10.38s-7.17,10.35-19.16,10.35c-2.58,0-6.69-.9-7.05-1.01-.02,0-.04,0-.06-.01-3.87-1.08-7.56-2.91-10.88-5.02h0c-.07-.04-.14-.08-.21-.13l-.72,.57-12.15,5.83c1.07,.65,2.17,1.24,3.29,1.77,13.42,6.78,28.21,6.16,28.21,6.16,10.14,0,18.48-2.65,25.04-6.76,6.56-4.11,9.84-9.01,9.84-14.7,0-.11-.01-.23-.01-.34,0-.14,.01-.28,.01-.42Z"/>
      <path class="cls-3" d="M93.7,71.54s.01,.05,.03,.05"/>
      <path class="cls-3" d="M95.6,72.95s.01,.05,.03,.05"/>
      <polyline class="cls-2" points="94.07 71.86 97.11 73.98 109.22 68.14 109.94 67.57 107.1 65.61 94.07 71.7"/>
      <polyline class="cls-2" points="97.39 73.85 109.25 68.15 109.97 67.58 109.9 67.56 108.63 67.93"/>
    </g>
  </g>
</svg>