<svg data-name="圖層 2" xmlns="http://www.w3.org/2000/svg" viewBox="0 0 21.8 36">
    <path
        d="M.88 21.72c.58-1.25 1.38-2.3 2.4-3.15a10.66 10.66 0 013.5-1.93c1.32-.43 2.69-.65 4.12-.65s2.81.22 4.12.65c1.32.43 2.48 1.08 3.5 1.93 1.02.85 1.82 1.9 2.4 3.15s.88 2.67.88 4.28c0 1.37-.27 2.65-.83 3.85a10.31 10.31 0 01-2.3 3.2c-.98.93-2.13 1.66-3.45 2.17s-2.76.78-4.32.78-3.01-.26-4.33-.78c-1.32-.52-2.47-1.24-3.45-2.17-.98-.93-1.75-2-2.3-3.2S-.01 27.37-.01 26c0-1.6.29-3.03.88-4.28zm1.65-17.3c.85-1.35 2-2.42 3.45-3.22C7.43.4 9.07 0 10.91 0s3.47.4 4.92 1.2c1.45.8 2.6 1.88 3.45 3.22.85 1.35 1.27 2.86 1.27 4.53 0 1.37-.23 2.59-.7 3.67s-1.12 2.01-1.97 2.77c-.85.77-1.87 1.35-3.05 1.75-1.18.4-2.49.6-3.92.6s-2.74-.2-3.93-.6c-1.18-.4-2.2-.98-3.05-1.75a7.834 7.834 0 01-1.97-2.77c-.47-1.08-.7-2.31-.7-3.67 0-1.67.42-3.18 1.28-4.53zm2.5 24.72c.65 1 1.5 1.77 2.55 2.3s2.16.8 3.33.8 2.27-.27 3.32-.8c1.05-.53 1.9-1.3 2.55-2.3.65-1 .97-2.22.97-3.65 0-1.27-.33-2.41-.97-3.42a7.24 7.24 0 00-2.55-2.43c-1.05-.6-2.16-.9-3.32-.9s-2.28.3-3.33.9a7.24 7.24 0 00-2.55 2.43c-.65 1.02-.98 2.16-.98 3.42 0 1.43.33 2.65.98 3.65zm1.05-16.8c.52.83 1.2 1.48 2.05 1.95s1.78.7 2.78.7 1.92-.23 2.77-.7c.85-.47 1.53-1.12 2.05-1.95.52-.83.78-1.8.78-2.9s-.24-2.08-.72-2.95a5.223 5.223 0 00-1.98-2.03c-.83-.48-1.8-.72-2.9-.72s-2.03.24-2.88.72c-.85.48-1.52 1.16-2 2.03-.48.87-.73 1.85-.73 2.95s.26 2.07.78 2.9z"
        fill="#3e3a39" />
</svg>