<svg data-name="圖層 2" xmlns="http://www.w3.org/2000/svg" viewBox="0 0 26 36">
    <path
        d="M1.65 8.7C2.75 6 4.27 3.87 6.22 2.32 8.17.77 10.43 0 13 0s4.83.77 6.78 2.33c1.95 1.55 3.47 3.67 4.57 6.38 1.1 2.7 1.65 5.8 1.65 9.3s-.55 6.6-1.65 9.3c-1.1 2.7-2.62 4.83-4.57 6.38-1.95 1.55-4.21 2.33-6.78 2.33s-4.83-.78-6.78-2.33c-1.95-1.55-3.47-3.67-4.57-6.38-1.1-2.7-1.65-5.8-1.65-9.3s.55-6.6 1.65-9.3zm3.2 14.92c.4 1.72.98 3.2 1.75 4.45s1.69 2.22 2.78 2.9C10.46 31.65 11.67 32 13 32s2.58-.34 3.65-1.03c1.07-.68 1.98-1.65 2.75-2.9s1.35-2.73 1.75-4.45c.4-1.72.6-3.59.6-5.62s-.2-3.91-.6-5.62c-.4-1.72-.98-3.2-1.75-4.45s-1.68-2.22-2.75-2.9c-1.07-.68-2.28-1.02-3.65-1.02s-2.54.34-3.62 1.02c-1.08.68-2.01 1.65-2.78 2.9s-1.35 2.73-1.75 4.45c-.4 1.72-.6 3.59-.6 5.62s.2 3.91.6 5.62z"
        fill="#3e3a39" />
</svg>