<?xml version="1.0" encoding="UTF-8"?>
<svg id="_圖層_2" data-name="圖層 2" xmlns="http://www.w3.org/2000/svg" viewBox="0 0 211.81 59.52">
  <defs>
    <style>
      .cls-1 {
        fill: #ee7624;
      }
    </style>
  </defs>
  <g id="_文案" data-name="文案">
    <g>
      <path class="cls-1" d="M2.07,41.63v-6.67c4.85,1.67,9.91,2.5,15.15,2.5,6.97,0,10.45-2.07,10.45-6.24,0-3.89-2.28-5.84-6.87-5.84h-7.07c-9.14,.02-13.74-4.29-13.74-12.89S6.06,0,18.19,0c5.22,0,10.25,.7,15.11,2.07v6.67c-4.85-1.67-9.89-2.5-15.11-2.5-7.27,0-10.92,2.09-10.92,6.24,0,3.89,2.16,5.82,6.45,5.82h7.07c9.71,0,14.56,4.31,14.56,12.91s-6.04,12.49-18.15,12.49c-5.22,.02-10.25-.68-15.13-2.07"/>
      <polygon class="cls-1" points="38.43 .14 46.75 .14 59.3 34.3 71.74 .14 80.06 .14 62.28 43.73 55.13 43.73 38.43 .14"/>
      <path class="cls-1" d="M170.19,21.85c0-14.56,6.93-21.85,20.81-21.85s20.81,7.29,20.81,21.85-6.93,21.81-20.81,21.81-20.75-7.27-20.81-21.81m20.81,15.61c8.74,0,13.11-5.26,13.11-15.77s-4.37-15.45-13.11-15.45-13.11,5.16-13.11,15.45,4.37,15.77,13.11,15.77"/>
      <path class="cls-1" d="M98.21,.12c-4.49,0-9.1,.68-13.82,2.07v6.22c4.71-1.39,9.33-2.07,13.82-2.07,7.86,0,11.78,2.36,11.78,7.09v4.11c-3.24-.56-7.05-.83-11.4-.83-11.82,0-17.72,4.47-17.72,13.41s5.48,13.58,16.44,13.58c3.48,0,6.32-.32,9-1.17v-6.49c-2.54,.97-5.52,1.45-9,1.45-5.82,0-8.74-2.5-8.74-7.47,0-4.71,3.34-7.07,10.03-7.07,4.55,0,8.36,.28,11.4,.83v19.94h7.69V14.08C117.69,4.77,111.2,.12,98.21,.12"/>
      <path class="cls-1" d="M156.6,34.72c-3.02,1.51-6.53,2.6-10.53,2.6-8.8,0-13.19-5.54-13.19-15.93s4.63-15.05,13.9-15.07c6.55,.38,9.83,2.54,9.83,6.89v21.51h0ZM142.38,.4c-4.63,.58-8.32,2.09-11.08,4.51l-.32,.26c-3.79,3.54-5.7,8.94-5.7,16.31,0,14.8,6.91,22.18,20.73,22.18,3.77,0,7.29-.7,10.57-2.09v2.09c0,6.4-4.11,9.61-12.33,9.61-5.36,0-10.15-.7-14.4-2.09v6.26c4.17,1.39,8.94,2.07,14.32,2.07,13.41,0,20.1-5.28,20.1-15.87h0V13.84c0-8.78-5.72-13.23-17.16-13.76h0s-3.1,.12-4.73,.32"/>
    </g>
  </g>
</svg>