<?xml version="1.0" encoding="UTF-8"?>
<svg id="_圖層_2" data-name="圖層 2" xmlns="http://www.w3.org/2000/svg" viewBox="0 0 100 63.08">
  <defs>
    <style>
      .cls-1 {
        fill: #fff;
      }
    </style>
  </defs>
  <g id="_圖層_3" data-name="圖層 3">
    <path class="cls-1" d="M0,49.47H100v1.19H0v-1.19ZM0,.24H29.01V4.25H0V.24ZM12.28,8.85h4.54V42.55h-4.54V8.85Zm27.97,25.15h-4.54V0h4.54V34Zm-4.6,4.69h26.41v4.1h-26.41v-4.1Zm32.5-8.63v12.58h4.54v-11.91l8.94-10.72,12.95,22.61h5.36l-15.27-26.1L98.05,.07h-5.58l-24.32,29.98Zm4.54-12.43V.15h-4.54V21.59l4.54-3.96Zm7.74,45.32c1.56,0,2.6-.82,2.6-2.15,0-.59-.22-1.11-.67-1.5-.3-.3-.67-.45-1.34-.52l-.82-.15c-.37-.07-.74-.22-1.04-.45-.22-.22-.37-.52-.37-.89,0-.82,.59-1.41,1.56-1.41,.82,0,1.26,.22,1.78,.67l.52-.52c-.67-.59-1.26-.82-2.23-.82-1.5,0-2.39,.82-2.39,2.15,0,.59,.22,1.04,.59,1.41,.3,.3,.82,.45,1.41,.59l.89,.15c.52,.07,.74,.15,.97,.37,.22,.22,.37,.52,.37,.97,0,.89-.67,1.41-1.78,1.41-.82,0-1.41-.22-2.08-.82l-.52,.52c.69,.69,1.43,.99,2.55,.99m-48.88-7.59h5.21v.74h-5.21v-.74Zm2.23,1.56h.82v6.03h-.82v-6.03Zm-7.22,6.1h.82v-7.66h-.82v7.66Zm32.67-.07h4.84v-.74h-4.01v-6.18h4.01v-.74h-4.84v7.66Zm4.23-4.17h-2.45v.74h2.45v-.74Zm-19.87,4.3c.89,0,1.56-.37,2.08-.89l-.52-.52c-.45,.45-.89,.74-1.56,.74-.52,0-.97-.22-1.26-.52-.45-.52-.52-.97-.52-2.6s.07-2.08,.52-2.6c.3-.37,.82-.52,1.26-.52,.74,0,1.11,.3,1.56,.74l.52-.52c-.59-.59-1.19-.89-2.08-.89-.74,0-1.41,.3-1.93,.74-.74,.67-.74,1.41-.74,2.97s0,2.3,.67,3.06c.59,.54,1.26,.82,2,.82m7.07-5.21h-.82v-2.54h.82v2.54Zm-.81,5.07v-4.17h4.47v-3.49h.74v7.66h-.82v-3.43h-3.65v3.43h-.74Zm23.2,0h0l.82,.07v-7.66h-.82v7.59Zm-4.82-7.59v7.59h.82v-6.1l3.12,4.69v-1.5l-3.14-4.77h-.82v.08h.02Zm-51.27,5.36v2.23h.82v-2.17l1.63-1.93,2.3,4.1h.97l-2.75-4.69,2.39-2.97h-.97l-3.58,4.38m.02-1.28v-3.12h-.82v3.86"/>
  </g>
</svg>