<?xml version="1.0" encoding="UTF-8"?>
<svg id="_圖層_2" data-name="圖層 2" xmlns="http://www.w3.org/2000/svg" viewBox="0 0 24.91 485.88">
  <defs>
    <style>
      .cls-1 {
        fill: #fff;
      }

      .cls-2 {
        fill: none;
        stroke: #fff;
        stroke-miterlimit: 10;
        stroke-width: 1.94px;
      }
    </style>
  </defs>
  <g id="_三核心" data-name="三核心">
    <g>
      <g>
        <path class="cls-1" d="M21.57,7.18l3.35,2.55c-.24,.34-.58,.5-1.37,.5H13.98v13.26c0,.08-.5,1.08-3.05,1.08V10.23H.4l-.18-.58H10.93V0l4.24,.37c-.05,.45-.29,.68-1.18,.79V9.66h5.77l1.82-2.47Z"/>
        <path class="cls-1" d="M21.41,29.28l2.98,2.18c-.18,.21-.55,.45-1.11,.55v17.89s-.74,.87-2.76,.87v-2.42H4.45v1.5c0,.08-.32,1.1-2.71,1.1V29.54l2.95,1.24h15.56l1.16-1.5ZM4.45,47.83H20.51V31.3h-4.42v8.87c0,.71,0,.76,.32,.76h1.24c.13,0,.34,0,.53-.24,.18-.32,.55-1.39,.82-2.39h.19l.03,2.53c.82,.39,.9,.5,.9,.89,0,.95-.74,1.42-2.34,1.42h-1.61c-2.29,0-2.56-.39-2.56-3.03v-8.81h-2.92c-.13,5.89-.47,10.21-5.98,13.08l-.24-.26v3.71Zm0-3.92c3.55-3.16,3.53-7.29,3.58-12.6h-3.58v12.6Z"/>
        <path class="cls-1" d="M21.86,55.53l2.92,2.13c-.19,.21-.58,.45-1.11,.55v17.76c0,1.82-.47,3.13-3.53,3.39,0-2.13-.82-2.53-2.71-2.71v-.34h3.16c.32,0,.42-.11,.42-.39v-6.81h-4.42c-.4,3.84-1.84,7.58-6.56,10.13l-.32-.26c.74-.68,1.34-1.39,1.87-2.13-.16,.08-.37,.13-.55,.13-.37,0-.76-.18-1.11-.55-.13-1.37-.97-3.05-1.95-4.05l.21-.16c3.16,.74,4.24,2.08,4.27,3.16,.68-1.37,1.11-2.82,1.34-4.34-.19,.05-.42,.08-.74,.08H.13l-.13-.53H2.53v-11.16H.5l-.13-.53H2.53v-4.31l3.53,.32c-.03,.37-.26,.53-1,.66v3.34h3.21v-4.31l3.63,.34c-.03,.37-.29,.55-1.08,.66v3.32h.16l1.05-1.68,1.95,1.74c-.18,.34-.53,.47-1.19,.47h-1.97v11.16h.11l1.19-1.87,1.79,1.61c.21-1.5,.26-3.08,.26-4.68v-9.76l3,1.13h3.58l1.11-1.47Zm-14.98,17.79c-.13,.29-.39,.47-1.03,.42-1.42,2.5-3.37,4.37-5.48,5.47l-.32-.24c1.26-1.5,2.53-4.21,3.27-7l3.55,1.34Zm1.4-13.89h-3.21v3.29h3.21v-3.29Zm-3.21,3.82v3.37h3.21v-3.37h-3.21Zm0,3.89v3.45h3.21v-3.45h-3.21Zm11.69-1.53c0,.97-.03,1.97-.11,2.97h4.37v-5.39h-4.27v2.42Zm4.27-8.08h-4.27v5.13h4.27v-5.13Z"/>
      </g>
      <g>
        <line class="cls-2" x1="12.73" y1="92.42" x2="12.73" y2="480.33"/>
        <path class="cls-1" d="M6.88,480.04c0,3.23,2.62,5.85,5.85,5.85s5.85-2.62,5.85-5.85-2.62-5.85-5.85-5.85-5.85,2.62-5.85,5.85Z"/>
      </g>
    </g>
  </g>
</svg>