<?xml version="1.0" encoding="UTF-8"?>
<svg id="_圖層_2" data-name="圖層 2" xmlns="http://www.w3.org/2000/svg" viewBox="0 0 25.25 389.22">
  <defs>
    <style>
      .cls-1 {
        fill: #fff;
      }

      .cls-2 {
        fill: none;
        stroke: #fff;
        stroke-miterlimit: 10;
        stroke-width: 1.94px;
      }
    </style>
  </defs>
  <g id="_三核心" data-name="三核心">
    <g>
      <g>
        <path class="cls-1" d="M21.14,4.71l3.82,1.87c-.16,.37-.45,.55-1.21,.68l-12.74,2.45v9.52c0,1.11,.26,1.29,1.5,1.29h6.5c.61,0,1-.03,1.34-.5,.34-.47,.87-2.08,1.61-4.34h.18l-.05,4.5c1.24,.47,1.42,.66,1.42,1.11,0,1.29-.92,1.87-4.58,1.87h-6.29c-3.5,0-4.53-.74-4.53-4V10.26L.47,11.71l-.24-.5,7.87-1.5V0l3.98,.37c-.05,.37-.24,.58-1.08,.71V9.16l8.77-1.66,1.37-2.79Z"/>
        <path class="cls-1" d="M21.91,27.91l2.92,2.13c-.18,.21-.58,.45-1.11,.55v17.76c0,1.82-.47,3.13-3.53,3.39,0-2.13-.82-2.53-2.71-2.71v-.34h3.16c.32,0,.42-.11,.42-.39v-6.81h-4.42c-.4,3.84-1.84,7.58-6.56,10.13l-.32-.26c.74-.68,1.34-1.39,1.87-2.13-.16,.08-.37,.13-.55,.13-.37,0-.76-.18-1.11-.55-.13-1.37-.97-3.05-1.95-4.05l.21-.16c3.16,.74,4.24,2.08,4.27,3.16,.68-1.37,1.11-2.82,1.34-4.34-.18,.05-.42,.08-.74,.08H.18l-.13-.53H2.58v-11.16H.55l-.13-.53H2.58v-4.31l3.53,.32c-.03,.37-.26,.53-1,.66v3.34h3.21v-4.31l3.63,.34c-.03,.37-.29,.55-1.08,.66v3.32h.16l1.05-1.68,1.95,1.74c-.18,.34-.53,.47-1.19,.47h-1.98v11.16h.11l1.19-1.87,1.79,1.61c.21-1.5,.26-3.08,.26-4.68v-9.76l3,1.13h3.58l1.11-1.47ZM6.93,45.7c-.13,.29-.4,.47-1.03,.42-1.42,2.5-3.37,4.37-5.48,5.47l-.32-.24c1.26-1.5,2.53-4.21,3.27-7l3.55,1.34Zm1.4-13.89h-3.21v3.29h3.21v-3.29Zm-3.21,3.82v3.37h3.21v-3.37h-3.21Zm0,3.89v3.45h3.21v-3.45h-3.21Zm11.69-1.53c0,.97-.03,1.97-.11,2.97h4.37v-5.39h-4.27v2.42Zm4.27-8.08h-4.27v5.13h4.27v-5.13Z"/>
        <path class="cls-1" d="M7.9,70.34l.03-.03c3.21,.66,4.27,2,4.27,3.05,0,.82-.63,1.45-1.34,1.45-.34,0-.71-.16-1.03-.5-.16-1.24-1-2.74-1.92-3.66v7.55c0,.05-.45,.82-2.69,.82v-6.24c-1.32,1.66-2.95,3.1-4.85,4.29l-.29-.37c2-2.13,3.56-5.1,4.45-7.95H.63l-.13-.53H5.21v-3.55H.32l-.13-.53H7.53c.4-1.61,.79-3.82,1.03-5.39l3.56,.87c-.08,.29-.34,.45-.97,.42-.74,1.18-1.92,2.82-3.05,4.1h1.66l1.32-1.68,2.48,1.74c-.18,.37-.55,.47-1.24,.47h-3.66c-.05,.16-.26,.29-.74,.34v3.21h1.58l1.29-1.79,2.37,1.84c-.21,.34-.53,.47-1.24,.47H7.9v1.58ZM.76,58.55l-.13-.5H5.19v-3.79l3.82,.37c-.05,.37-.29,.55-1.08,.66v2.76h1.26l1.29-1.79,2.45,1.84c-.18,.34-.53,.45-1.24,.45H.76Zm1.92,.29c2.19,1.21,2.92,2.53,2.92,3.53s-.71,1.68-1.45,1.68c-.4,0-.82-.18-1.11-.66,.03-.26,.05-.55,.05-.87,0-1.24-.29-2.63-.71-3.55l.29-.13Zm19.67,2.89l2.9,2.24c-.21,.32-.58,.45-1.29,.45h-1.76v13.81c-.03,.18-.87,.79-2.29,.79h-.47v-14.6h-2.84v.92c0,4.79-.55,10.21-6.56,13.66l-.32-.32c3.66-3.74,4.16-8.47,4.16-13.39v-8.84l2.98,.95c1.9-.92,3.9-2.18,4.98-3.1l3,2.39c-.16,.16-.37,.24-.66,.24-.24,0-.53-.05-.87-.16-1.69,.55-4.27,1.13-6.72,1.42v5.71h4.21l1.55-2.16Z"/>
        <path class="cls-1" d="M21.78,84.09l3.19,2.26c-.21,.32-.53,.45-1.29,.45H14.06l.9,.08c-.05,.34-.21,.53-.92,.61v3.71h4.85l1.13-1.5,3.05,2.21c-.16,.18-.55,.42-1.08,.53v7.39c0,1.71-.34,2.92-3.69,3.29,0-2.11-.95-2.47-2.63-2.66v-.34h3.03c.32,0,.45-.08,.45-.37v-8.02h-5.11v13.66c0,.32-1.32,1-2.37,1h-.58v-14.66H5.98v10.37c0,.08-.4,1.05-2.82,1.05v-13.16l3,1.21h4.92v-4.39H.37l-.13-.53H11.09v-4.6l4.06,.37c-.03,.39-.32,.58-1.11,.68v3.55h6.06l1.69-2.18Z"/>
        <path class="cls-1" d="M25.04,115.24c-.21,.34-.58,.45-1.29,.45h-.55c-.66,4.5-1.82,8.31-4.06,11.37,1.58,1.68,3.58,3,6.06,3.97l-.05,.29c-1.42,.32-2.24,1.16-2.61,2.55-2.16-1.24-3.79-2.92-5.03-4.92-2.08,2.05-4.87,3.68-8.64,4.84l-.13-.34c3.56-1.6,6.03-3.71,7.79-6.37-1.05-2.31-1.71-4.97-2.16-7.95-.82,1.34-1.74,2.5-2.79,3.45l-.37-.24c.37-.63,.74-1.39,1.05-2.26-.11,.03-.24,.03-.37,.03h-3.34v7.37c1.76-.24,3.63-.5,5.53-.79l.05,.37c-2.61,1.08-6.37,2.45-11.93,4.21-.16,.34-.42,.58-.71,.66l-1.5-3.37c.42-.03,.95-.08,1.55-.16v-11.87l3.24,.29c-.03,.32-.26,.45-.9,.55v10.74l2.03-.26v-15.58H.53l-.16-.53H9.37l1.53-1.97,2.79,2.05c-.18,.34-.55,.45-1.24,.45h-3.9v7.31h.71l1.37-2.03,1.98,1.63c.95-2.87,1.63-6.53,1.9-10.16l4.06,.74c-.08,.37-.29,.55-1,.63-.37,1.71-.82,3.29-1.34,4.76h4.27l1.61-2.16,2.95,2.24Zm-9.01,.45c-.37,.95-.79,1.84-1.24,2.66,.61,2.63,1.53,4.89,2.84,6.84,1.34-2.71,2.08-5.87,2.5-9.5h-4.11Z"/>
      </g>
      <g>
        <line class="cls-2" x1="12.78" y1="147.57" x2="12.78" y2="383.67"/>
        <path class="cls-1" d="M6.94,383.37c0,3.23,2.62,5.85,5.85,5.85s5.85-2.62,5.85-5.85-2.62-5.85-5.85-5.85-5.85,2.62-5.85,5.85Z"/>
      </g>
    </g>
  </g>
</svg>