<?xml version="1.0" encoding="UTF-8"?>
<svg id="_圖層_2" data-name="圖層 2" xmlns="http://www.w3.org/2000/svg" viewBox="0 0 25.25 427.97">
  <defs>
    <style>
      .cls-1 {
        fill: #fff;
      }

      .cls-2 {
        fill: none;
        stroke: #fff;
        stroke-miterlimit: 10;
        stroke-width: 1.94px;
      }
    </style>
  </defs>
  <g id="_三核心" data-name="三核心">
    <g>
      <g>
        <path class="cls-1" d="M7.5,6.29l2.58,2.21c-.18,.26-.42,.37-1.03,.39C7.87,13.94,5.42,19.13,.18,22.39l-.18-.37c3.61-3.45,5.48-8.74,6.24-13.73H.5l-.16-.53H6.03l1.47-1.47Zm6.45-2.11c.55,2.95,1.5,5.37,2.66,7.39,1.84-2.11,3.79-4.95,4.79-6.76l3.37,2.16c-.13,.21-.29,.32-.63,.32-.13,0-.24,0-.4-.03-1.66,1.45-4.24,3.39-6.79,4.89,2.21,3.58,5.19,5.79,8.14,7.26l-.11,.26c-1.19,.21-2.08,1.18-2.5,2.5-4.19-3.39-7.08-7.71-8.51-16.16h-.03v15c0,1.95-.5,3.39-4,3.76-.05-2.05-.84-2.58-3.4-2.87v-.37h3.98c.42,0,.55-.16,.55-.53V0l3.95,.34c-.03,.39-.16,.58-1.08,.71v3.13Z"/>
        <path class="cls-1" d="M.32,34.38c3.24,.45,4.29,1.68,4.29,2.71,0,.82-.66,1.47-1.42,1.47-.34,0-.74-.13-1.08-.5-.21-1.24-1.03-2.68-1.95-3.5l.16-.18Zm1.42,9.89c.37,0,.47,0,.76-.55,.37-.61,.53-.95,5.08-11.37l.42,.13c-.97,3.16-2.77,9.05-3.11,10.39-.18,.82-.37,1.66-.37,2.29v.13c.03,1.34,.95,2.34,.95,4.45,0,1.95-1.21,2.39-2.03,2.39-.55,0-1.11-.42-1.26-1.37,.18-1.13,.26-2.18,.26-3.1,0-2.37-.45-2.74-1.9-2.87v-.53c.9,0,1.19-.03,1.19-.03v.03Zm-.34-16.58c3.61,.34,4.79,1.68,4.79,2.79,0,.84-.68,1.53-1.47,1.53-.37,0-.74-.13-1.08-.45-.34-1.29-1.34-2.79-2.4-3.66l.16-.21Zm20.57,6.13l2.9,2.13c-.18,.21-.58,.45-1.13,.55v12.26c0,1.74-.42,3.03-3.21,3.26,0-1.95-.4-2.42-2.11-2.63v-.34h2.4c.26,0,.32-.08,.32-.39v-12.87H10.8v15.29c0,.08-.34,1.03-2.58,1.03v-18l2.74,1.16h3.4v-3.76h-6.16l-.13-.53h6.29v-3.58l3.9,.37c-.05,.39-.32,.58-1.13,.68v2.53h3.34l1.53-2.05,2.84,2.13c-.21,.34-.55,.45-1.26,.45h-6.45v3.76h3.74l1.11-1.45Zm-1.05,10.89c-.21,.37-.53,.45-1.18,.45h-2.77v4.76c0,.11-.79,.58-2.08,.58h-.42v-5.34h-2.74l-.16-.5h2.9v-3.18h-2.61l-.16-.5h4.56c.34-1.37,.68-3.32,.9-4.74l3.05,.74c-.05,.32-.34,.45-.95,.45-.58,1.03-1.55,2.45-2.42,3.55h.95l1.05-1.39,2,1.45c-.18,.37-.53,.45-1.19,.45h-2.69v3.18h.92l1.03-1.39,2,1.45Zm-8.51-8.26c2.03,.89,2.71,1.97,2.71,2.82,0,.79-.61,1.37-1.26,1.37-.34,0-.71-.18-.97-.58,.03-.16,.03-.34,.03-.5,0-1.03-.32-2.21-.76-2.95l.26-.16Z"/>
        <path class="cls-1" d="M7.11,64.18c2.74,1.08,3.61,2.45,3.61,3.5,0,.89-.66,1.55-1.37,1.55-.37,0-.79-.18-1.11-.61,0-.53-.08-1.16-.24-1.76l-1.16,.34v11.52c0,.16-.82,.74-2.11,.74h-.45v-8.37c-.13,.05-.32,.11-.58,.11-.71,2.5-1.76,4.81-3.16,6.21l-.42-.21c.68-1.68,1.19-4.53,1.37-7.18l2.79,.58v-2.71c-.76,.21-1.55,.42-2.45,.63-.16,.34-.45,.53-.71,.58l-.95-2.74c.66,0,1.66,0,2.87-.03,1.42-2.63,2.95-5.97,3.92-8.39l3.45,1.42c-.11,.21-.29,.34-.66,.34-.11,0-.24-.03-.4-.05-1.32,1.92-3.37,4.5-5.37,6.66,1.16-.03,2.45-.05,3.79-.11-.26-.71-.58-1.37-.95-1.87l.26-.16ZM.4,59.19c.87,.18,1.58,.42,2.13,.68,.47-1.42,1.03-3.39,1.45-5.13l3.56,1.21c-.11,.32-.37,.47-1,.47-1,1.37-2.16,2.79-3.26,3.87,.79,.55,1.11,1.21,1.11,1.76,0,.76-.58,1.39-1.26,1.39-.34,0-.68-.16-1-.47-.18-1.21-1.03-2.71-1.92-3.58l.21-.21Zm7.11,10.87c2.4,1.26,3.19,2.68,3.19,3.74,0,.97-.66,1.66-1.37,1.66-.37,0-.74-.18-1.05-.61,.08-1.45-.4-3.45-1.05-4.66l.29-.13Zm15.01,5.87l2.74,2.03c-.21,.34-.55,.45-1.26,.45H9.51l-.16-.53h6.35v-7.02h-4.48l-.13-.5h9.09l1.37-1.76,2.55,1.82c-.18,.34-.55,.45-1.21,.45h-4.37v7.02h2.53l1.47-1.95Zm2.45-18.97c-.21,.34-.55,.45-1.26,.45H9.8l-.13-.53h11.01l1.5-1.92,2.79,2Zm-9.64,2.5c-.08,.26-.37,.42-.82,.37-.68,.74-2.55,2.58-3.77,3.66,3.13,1.18,4.19,2.76,4.19,3.95,0,.9-.66,1.55-1.42,1.55-.29,0-.61-.11-.92-.32-.16-1.42-1.08-3.74-2.48-5.1,.63-1.47,1.61-4.1,1.87-5.1l3.34,1Zm4.48,.13c-.08,.26-.37,.42-.82,.34-.71,.71-2.66,2.5-3.87,3.55,3.27,1.16,4.34,2.76,4.34,3.92,0,.87-.61,1.5-1.34,1.5-.29,0-.61-.11-.9-.32-.24-1.42-1.29-3.68-2.77-5,.71-1.47,1.79-4.05,2.08-5.05l3.27,1.05Zm4.61,0c-.11,.24-.37,.42-.82,.34-.74,.68-2.77,2.5-4.03,3.53,3.45,1.13,4.58,2.76,4.58,3.95,0,.87-.61,1.5-1.37,1.5-.29,0-.61-.08-.92-.29-.29-1.45-1.42-3.76-2.98-5.05,.74-1.47,1.9-4.08,2.21-5.08l3.32,1.1Z"/>
        <path class="cls-1" d="M7.45,86.2c3.32,.5,4.4,1.89,4.4,3,0,.84-.61,1.5-1.34,1.5-.32,0-.66-.13-.97-.42-.05-.42-.18-.84-.37-1.29-1.61,.76-3.77,1.66-6.72,2.79-.13,.37-.37,.55-.66,.63l-1.55-2.87c.61-.05,1.5-.18,2.58-.32v-5.97l2.66,.87c1.69-.66,3.53-1.53,4.48-2.1l2.26,2.21c-.08,.08-.21,.13-.37,.13s-.34-.05-.53-.13c-1.32,.24-3.77,.58-6.03,.68v3.97c1.11-.16,2.32-.32,3.56-.53-.4-.76-.97-1.45-1.58-1.95l.18-.21Zm10.77,15.76H8.61l3,2.16c-.13,.18-.37,.26-.68,.26-.24,0-.5-.05-.79-.13-2.32,1.16-6.03,2.18-9.66,2.55l-.11-.34c3.08-1.03,6.45-2.95,8.11-4.5h-1.58v.26c0,.05-.4,1.03-2.77,1.03v-11.68l2.95,1.21h10.9l1.08-1.39,2.95,2.05c-.16,.18-.5,.39-.97,.5v8.24c0,.05-.79,.71-2.82,.71v-.92Zm0-8.66H6.9v2.31h11.32v-2.31Zm0,5.21v-2.37H6.9v2.37h11.32Zm-11.32,.5v2.42h11.32v-2.42H6.9Zm3.42-7.03c4.08-2.37,4.58-5.1,4.71-7.71h-2.48l-.16-.5h8.24l1.05-1.29,2.66,1.97c-.18,.18-.5,.34-.95,.42-.26,5.34-.71,6.6-4.11,6.6,0-1.68-.45-1.87-1.98-2.24v-.37c.55,.03,1.76,.03,2.21,.03,.34,0,.53,0,.66-.13,.34-.32,.55-1.71,.68-4.5h-2.98c-.34,3.05-1.53,6.05-7.29,8.08l-.29-.37Zm4.08,10.74c7.74,.24,9.98,1.79,9.98,2.92,0,.68-.76,1.18-1.63,1.18-.45,0-.9-.13-1.32-.42-1.34-1.08-3.74-2.42-7.14-3.34l.11-.34Z"/>
        <path class="cls-1" d="M21.78,109.92l2.92,2.16c-.18,.24-.58,.45-1.11,.58v20.29s-.68,.89-2.69,.89v-1.58H4.21v.79c0,.08-.26,1.13-2.66,1.13v-23.97l2.9,1.21H20.64l1.13-1.5Zm-17.56,21.81H20.91v-19.79H4.21v19.79Zm13.72-15.63l2.4,1.63c-.21,.37-.55,.45-1.21,.45H4.98l-.13-.5h6.37v-2.16H6.5l-.16-.53h4.87v-2.32l3.4,.32c-.03,.29-.24,.42-.87,.53v1.47h1.76l1.19-1.5,2.32,1.55c-.21,.37-.53,.47-1.19,.47h-4.08v2.16h2.92l1.26-1.58Zm1.03,4.5c-.11,.18-.4,.34-.76,.42v2.71l1.79,1.53c-.08,.11-.21,.16-.4,.16-.13,0-.29-.03-.47-.08-.53,.32-1.45,.74-2.21,1.08,1.05,.37,2.61,1.16,2.61,2.39,0,.58-.4,1.03-.92,1.03-.29,0-.63-.13-1-.5-.66-1.03-2.19-2.42-3.84-3.21v4.03c0,.16-.79,.74-2.08,.74h-.42v-4.55c-1.63,1.45-3.66,2.6-5.95,3.53l-.24-.45c2.32-1.45,4.24-3.5,5.45-5.63h-1.29v.34s-.34,.79-2.34,.79v-5.89l2.48,1.03h6.24l.9-1.13,2.48,1.68Zm-9.74,2.66h6.58v-2.71h-6.58v2.71Zm4.53,.53v1.97c.9,.11,1.74,.24,2.48,.45,.37-.5,.79-1.16,1.16-1.76-.74,.21-.92,.21-1.58,.21v-.87h-2.05Z"/>
        <path class="cls-1" d="M22.04,156.86l2.98,2.11c-.21,.34-.53,.45-1.26,.45H4.63v1.21c0,.24-.84,.92-2.26,.92h-.5v-23.34l3.13,1.21h14.33l1.55-2,2.92,2.05c-.21,.34-.55,.47-1.26,.47H4.63v18.97h15.8l1.61-2.05Zm-8.85-.58c-.03,.16-1.21,.63-1.98,.63h-.4v-1.05h-2.34v.82c0,.05-.34,.82-2.32,.82v-8.45l2.42,1.03h2.03l.9-1.16,2.55,1.74c-.13,.18-.45,.37-.87,.45v5.18Zm-4.71-.95h2.34v-4.74h-2.34v4.74Zm10.69-7.5c0,.05-.79,.66-2.69,.66v-1.13h-4.98v.37c0,.05-.42,.92-2.66,.92v-7.42l2.79,1.1h4.58l1.03-1.34,2.9,2c-.16,.18-.5,.39-.97,.5v4.34Zm-7.66-.97h4.98v-4h-4.98v4Zm10.51,9.47c-.03,.18-1.24,.63-2,.63h-.4v-1.1h-2.55v.42c0,.05-.37,.84-2.37,.84v-8.1l2.48,1.05h2.21l.92-1.21,2.63,1.82c-.16,.18-.47,.37-.92,.45v5.21Zm-4.95-1h2.55v-4.74h-2.55v4.74Z"/>
      </g>
      <g>
        <line class="cls-2" x1="12.78" y1="174.37" x2="12.78" y2="422.41"/>
        <path class="cls-1" d="M6.94,422.12c0,3.23,2.62,5.85,5.85,5.85s5.85-2.62,5.85-5.85-2.62-5.85-5.85-5.85-5.85,2.62-5.85,5.85Z"/>
      </g>
    </g>
  </g>
</svg>