<?xml version="1.0" encoding="UTF-8"?>
<svg id="_圖層_2" data-name="圖層 2" xmlns="http://www.w3.org/2000/svg" viewBox="0 0 141.05 140.75">
  <defs>
    <style>
      .cls-1 {
        fill: #fff;
      }

      .cls-2 {
        fill: #ae876d;
      }

      .cls-3 {
        fill: #fdfdfd;
      }

      .cls-4 {
        fill: #ad846c;
      }

      .cls-5 {
        fill: #fefefd;
      }
    </style>
  </defs>
  <g id="_圖層_1-2" data-name="圖層 1">
    <g>
      <path class="cls-4" d="M70.43,140.74C32.68,141.07,.01,110.22,0,70.41-.01,31.78,31.17-.07,70.63,0c39.75,.07,70.15,32.28,70.43,69.83,.3,39.66-32.27,71.35-70.62,70.91Z"/>
      <path class="cls-1" d="M100.14,99.24c-1.49,3.89-3.99,7.11-6.97,9.93-7.42,7-16.35,10.1-26.42,8.83-12.59-1.59-21.49-8.49-26.58-20.13-1.68-3.84-2.42-7.91-2.43-12.11,0-7.45,.08-14.91-.04-22.36-.1-5.87,5.6-9.89,10.99-7.67,.41,.17,.83,.39,1.32,.26,.34-.6,.17-1.25,.17-1.88,.02-5.96-.03-11.93,.04-17.89,.04-4.09,2.79-7.13,6.82-7.75,1.38-.21,2.7,.02,4,.51,1.48,.56,1.5,.53,2-.93,.95-2.8,2.85-4.57,5.74-5.25,3.14-.74,5.76,.21,7.89,2.57,1.17,1.3,1.15,1.32,2.75,.59,2.79-.74,5.61-1.07,8.07,.77,1.9,1.42,3.25,3.25,2.57,5.92-.27,1.06-.06,2.19-.09,3.1,.18-1.06-.38-2.43,.68-3.56,.38,1.82,.25,3.66,.28,5.48,.03,1.93,.79,2.4,2.5,1.54,2.26-1.13,5.32-.59,6.86,1.23,.74,.87,.22,1.27-.63,1.46-1.2,.27-2.46,.08-3.67,.37-3.36,.66-4.12,1.54-4.14,4.99-.03,5.18,0,10.37-.01,15.55,0,1.23-.03,2.47-.45,3.65-.34,.96-.88,1.77-1.99,1.9-1.02,.12-1.74-.38-2.18-1.29-.25-.89-.16-1.8-.16-2.7,0-9.82,0-19.63,0-29.45,0-1.04,.01-2.07-.4-3.05-.91-2.11-2.44-3.09-4.33-2.75-1.74,.31-2.85,1.82-2.95,4.02-.04,.91-.04,1.82-.01,2.72,.27,8.62-.54,17.22-.41,25.84,0,.52-.03,1.04-.16,1.54-.25,1-.88,1.58-1.91,1.64-1.03,.06-1.73-.48-2.12-1.4-.39-.92-.31-1.91-.32-2.88,0-9.27,0-18.53,0-27.8,0-.84,.03-1.69-.07-2.52-.26-2.03-1.51-3.38-3.27-3.54-2.02-.18-3.66,.95-4.27,2.92-.35,1.14-.32,2.3-.32,3.47,0,9.14,0,18.27,0,27.41,0,.84,.03,1.69-.12,2.52-.2,1.08-.82,1.77-1.95,1.82-1.13,.06-1.82-.57-2.18-1.59-.31-.87-.26-1.79-.26-2.7,0-7.39,0-14.78,0-22.16,0-.91,.04-1.82-.13-2.71-.31-1.62-1.53-2.82-3.1-3.1-1.6-.29-3.01,.4-3.92,1.92-.58,.98-.78,2.05-.78,3.17-.03,12.05,0,24.11-.03,36.16,0,1.47,.57,2.14,1.98,2.61,6.52,2.16,10.34,7.48,10.48,14.36,.02,1.1,.06,2.21-.04,3.3-.16,1.9-1.07,2.99-2.44,2.97-1.35-.03-2.22-1.12-2.38-3.04-.1-1.23-.03-2.46-.05-3.69-.09-4.87-3.24-8.66-8-9.65-3.76-.78-4.05-1.14-4.06-5.06-.01-3.76,0-7.52-.01-11.28,0-.97-.02-1.94-.46-2.85-.72-1.5-1.91-2.29-3.55-2.25-1.66,.04-2.8,.93-3.42,2.45-.42,1.03-.5,2.14-.5,3.25,0,6.29-.05,12.57,.01,18.86,.1,10.1,3.65,18.57,11.91,24.79,10.22,7.7,24.98,7.41,34.91-.67,3.28-2.67,5.88-5.83,7.75-9.6,.35-.7,.7-1.39,1.18-2.01,.74-.56,.88-1.64,1.78-2.07,.22,0,.42,.05,.6,.16,1.18,.52,1.3,1.48,1.1,2.59-.14,.77-.59,1.43-.7,2.21Z"/>
      <path class="cls-5" d="M96.13,41.57c1.4,.11,2.74-.47,4.12-.25,.02-.2,.06-.31,.03-.33-1.51-1.03-2.9-2.32-4.93-2.18-.55,.04-1.14-.15-1.32,.74-.09,.44-2.03,.6-2.7,.35-.74-.29-.58-.94-.59-1.49-.02-1.87,0-3.74-.15-5.62-.44,1.75-.04,3.59-.44,5.62-.7-.64-.58-1.17-.58-1.65-.02-2.19-.03-4.38,.2-6.56,.03-.27,.08-.63-.14-.71-1.4-.49-1.58-2.12-2.71-2.85-.32-.21-.57-.6-.98-.57-2.18,.13-4.35-.43-6.54-.09,5.21-2.94,11.31,.66,11.61,6.88,.08,1.62,0,3.24,.02,4.86,.02,1.67,.04,1.69,1.6,1.17,2.12-.71,4.21-.77,6.23,.27,2.76,1.42,4.37,3.66,4.37,6.81,.01,13.73,.05,27.46-.06,41.19-.03,4.23-.98,8.33-3.05,12.11,0-.25-.08-.54,.01-.76,.65-1.56,.36-2.9-.89-4.06,.33-1,.56-2.14,1.74-.62-.65-.87-.64-1.82-.27-2.87,.58-1.59,.74-3.26,.74-4.96-.03-6.93,.12-13.87-.06-20.79-.15-5.63-.08-11.26-.16-16.22-.09,10.38,.32,21.43,.21,32.49-.04,4.45,.38,8.95-2.2,12.98-.56,.51-.36,1.55-1.21,1.91-.54-.72-.33-1.5-.11-2.24,1.2-4.09,1.44-8.27,1.42-12.5-.04-10.89-.05-21.78,.01-32.66,.02-2.66-.21-5.07-2.82-6.54-.28-.16-.43-.48-.43-.83Z"/>
      <path class="cls-4" d="M96.13,41.57c3.2,1.34,3.91,2.41,3.91,5.89-.01,11.06-.08,22.13-.02,33.19,.03,5.33-.13,10.6-1.96,15.69-1.51,3.01-3.03,6.01-5.35,8.52-7.76,8.41-17.31,11.78-28.49,9.34-10.87-2.37-18.04-9.21-21.74-19.68-1.14-3.22-1.44-6.58-1.46-9.95-.05-6.74-.01-13.48-.02-20.22,0-.78,.03-1.55,.21-2.32,.53-2.24,2.46-3.73,4.66-3.59,2.34,.15,4.14,1.89,4.32,4.23,.07,.97,.02,1.94,.02,2.92,0,3.89,0,7.78,0,11.66,0,2.05,.21,2.34,2.3,2.56,2.83,.3,5.25,1.37,7.16,3.5,1.66,1.85,2.63,3.99,2.69,6.5,.03,1.36,0,2.72,.02,4.08,0,.45-.02,.91,.07,1.35,.16,.86,.7,1.41,1.59,1.44,.9,.02,1.58-.53,1.62-1.37,.19-3.95,.45-7.92-1.62-11.56-2.07-3.63-5.07-6.02-9.2-6.87-1.14-.24-1.42-.78-1.41-1.87,.03-12.64,.02-25.27,.02-37.91,0-.72,.08-1.43,.28-2.11,.65-2.18,2.59-3.44,4.93-3.21,2.04,.2,3.71,1.83,3.97,3.93,.07,.58,.03,1.16,.03,1.75,0,7.97,0,15.94,0,23.91,0,.58-.04,1.18,.07,1.74,.16,.86,.71,1.39,1.63,1.35,.91-.03,1.43-.56,1.52-1.46,.05-.58,.03-1.17,.03-1.75,0-9.66,0-19.31,0-28.97,0-.65-.03-1.3,.04-1.94,.3-2.86,2.15-4.5,4.91-4.41,2.55,.09,4.27,1.97,4.28,4.79,.01,10.17,0,20.35-.02,30.52,0,.58-.04,1.17,.04,1.75,.13,1,.81,1.56,1.7,1.49,.91-.08,1.41-.6,1.48-1.5,.03-.39,.02-.78,.03-1.17,.05-9.26,.1-18.53,.15-27.79,0-.52,0-1.04,.04-1.55,.18-2.16,1.7-3.83,3.72-4.14,2.32-.35,4.11,.73,4.99,2.99,.3,.68,.15,1.4,.15,2.1,.01,10.57,0,21.15,.02,31.72,0,.68-.28,1.42,.26,2.04,1.94,1.35,2.94,.93,3.18-1.38,.08-.77,.09-1.55,.09-2.32,0-5.63,.04-11.26,0-16.88-.03-3.04,1.87-4.53,3.8-4.89,.44-.08,.9-.09,1.35-.14Z"/>
      <path class="cls-2" d="M87.71,67.18c-.59-.4-.47-1.02-.47-1.58,0-11.42,.02-22.85,.03-34.27,.61,.81,.37,1.75,.37,2.63,0,10.23-.01,20.47-.01,30.7,0,.84,.05,1.68,.08,2.52Z"/>
      <path class="cls-5" d="M97.74,40.27c.09,.14,.23,.28,.24,.42,.02,.21-.17,.35-.35,.24-.11-.07-.15-.3-.17-.46,0-.04,.15-.11,.28-.2Z"/>
      <path class="cls-1" d="M99.21,94.34c.57-1.77,.58-3.73,1.57-5.44,.35-.61,.49-1.32,.48-2.06-.01-7.38,.3-14.77-.1-22.13-.33-5.95-.12-11.88-.28-17.82-.02-.65-.2-1.37,.38-2.12,.55,.69,.38,1.34,.38,1.94,.01,4.4,0,8.8,0,13.2,0,10.15-.02,20.3,.09,30.45,0,.92-.79,1.03-.91,1.75-.14,.87,1.1,.97,.77,1.82-.2,.53-.33,1.08-.52,1.71-.39-.76-.33-1.6-.9-2.16-.69-.03-.33,.86-.98,.85Z"/>
      <path class="cls-3" d="M94.84,79.37c-.03,3.72-1.2,5.86-2.88,7.73-2.65,2.95-5.8,5.35-8.8,7.92-.98,.84-1.81,.83-2.8-.04-2.97-2.6-6.16-4.96-8.78-7.94-2.05-2.33-3.25-4.97-2.72-8.17,.47-2.83,1.93-4.92,4.61-6.02,2.72-1.12,5.22-.62,7.4,1.32,.62,.55,1,.78,1.75,.09,2.4-2.21,5.19-2.62,8.08-1.15,2.95,1.51,4.09,4.17,4.15,6.25Z"/>
      <path class="cls-2" d="M86.74,42.03v23.89c-.06,0-.12,0-.18,0v-23.89c.06,0,.12,0,.18,0Z"/>
      <path class="cls-4" d="M92.57,80.06c-.06,1.99-.73,3.51-1.83,4.84-2.41,2.9-5.41,5.18-8.24,7.64-.58,.5-1.03,.34-1.53-.09-2.65-2.27-5.4-4.44-7.72-7.06-1.77-2-2.72-4.25-1.92-6.95,.58-1.94,1.84-3.25,3.86-3.69,1.98-.43,3.54,.36,4.8,1.84,.21,.24,.37,.53,.58,.77,.85,.96,1.57,.97,2.4,.03,.21-.24,.37-.53,.58-.78,1.2-1.44,2.7-2.25,4.6-1.92,2.03,.35,3.35,1.61,4.02,3.53,.23,.66,.3,1.38,.39,1.85Z"/>
    </g>
  </g>
</svg>