<?xml version="1.0" encoding="UTF-8"?>
<svg id="_圖層_2" data-name="圖層 2" xmlns="http://www.w3.org/2000/svg" viewBox="0 0 141 140.83">
  <defs>
    <style>
      .cls-1 {
        fill: #fff;
      }

      .cls-2 {
        fill: #b18870;
      }

      .cls-3 {
        fill: #fdfefd;
      }

      .cls-4 {
        fill: #ae866f;
      }

      .cls-5 {
        fill: #af876f;
      }

      .cls-6 {
        fill: #af866e;
      }

      .cls-7 {
        fill: #af866f;
      }

      .cls-8 {
        fill: #ad846c;
      }

      .cls-9 {
        fill: #af8770;
      }
    </style>
  </defs>
  <g id="_圖層_1-2" data-name="圖層 1">
    <g>
      <path class="cls-8" d="M0,70.42C-.27,32.72,30.32,.06,70.37,0c39.07-.06,70.64,31.15,70.64,70.39,0,40.23-32.81,69.99-69.64,70.43C32.37,141.28-.24,109.57,0,70.42Z"/>
      <path class="cls-1" d="M62.87,118.47c-5.71,0-11.42,0-17.13,0-3.8,0-5.74-1.93-5.78-5.75-.03-2.59-.04-5.18,0-7.78,.16-10.18-2.2-19.77-6.77-28.84-1.73-3.44-2.92-7.03-3.59-10.83-2.58-14.62,4.43-29.95,17.25-37.59,19.25-11.47,43.83-3.74,52.98,16.7,2.03,4.54,3.1,9.34,3.1,14.33,0,3.06,.72,5.89,2.16,8.56,1.94,3.59,3.83,7.21,5.76,10.81,.72,1.34,1.25,2.71,.95,4.27-.53,2.74-2.68,4.48-5.71,4.63-.96,.05-2.14-.38-2.82,.27-.77,.73-.28,1.97-.3,2.98-.05,2.33,0,4.67-.02,7-.06,5.48-4.1,9.59-9.57,9.7-1.88,.04-3.76,0-5.65,.01-1.96,0-1.97,.02-1.97,2.06,0,1.3,0,2.59,0,3.89-.04,3.54-2.03,5.57-5.54,5.58-5.78,.02-11.55,0-17.33,0Z"/>
      <path class="cls-8" d="M62.85,113.55c-5.39,0-10.77,0-16.16,0-1.78,0-1.77-.02-1.8-1.85-.09-4.27,.11-8.54-.25-12.82-.74-8.77-3.09-17.05-7.06-24.88-2.41-4.77-3.65-9.8-3.6-15.15,.13-14.16,9.75-26.7,23.42-30.45,18.74-5.14,37.67,7.24,40.39,26.46,.29,2.05,.3,4.13,.42,6.2,.16,2.83,1,5.46,2.31,7.96,1.87,3.56,3.75,7.11,5.63,10.66,.12,.23,.26,.45,.37,.68,.63,1.33,.48,1.61-.94,1.68-1.81,.08-3.63,.13-5.44,.2-.32,.01-.65,.03-.97,.02-.74-.02-1.06,.34-1.07,1.06,0,1.1-.05,2.2-.05,3.3,0,3.37,.02,6.74,0,10.11-.03,3.54-1.89,5.4-5.41,5.42-3.12,.02-6.23,0-9.35,0-2.67,0-2.46-.22-2.46,2.36,0,2.4,0,4.8,0,7.19,0,1.82-.02,1.84-1.8,1.85-5.39,.01-10.77,0-16.16,0Z"/>
      <path class="cls-3" d="M60.71,78.03c-3.46-1.73-6.14-4.1-7.94-7.38-6.39-11.67,1.88-25.27,14.42-25.76,9.99-.39,18.25,7.49,18.12,17.46-.09,6.58-3.12,11.64-8.87,14.97-.8,.46-1.5,.81-.67,1.84,.19,.23,.37,.66,.28,.9-.78,2.03,.49,4.15-.33,6.16-.19,.48,.04,.87,.16,1.3,.57,2.03,.04,3.34-1.86,4.07-.87,.33-.97,.78-1.03,1.56-.21,2.77-2.26,4.71-4.93,4.76-2.74,.05-4.93-1.9-5.18-4.74-.08-.89-.3-1.31-1.19-1.66-1.75-.7-2.27-2.14-1.63-3.98,.2-.58,.36-1.05,.02-1.64-.63-1.08-.02-2.09,.17-3.16,.17-.93-.82-1.9-.37-2.97,.22-.53,.5-1.03,.85-1.73Z"/>
      <path class="cls-8" d="M71.01,71.66c0-1.43,.02-2.85,0-4.28-.01-.74,.3-1.06,1.04-1.05,.71,0,1.42,0,2.12-.21,1.97-.58,3.25-2.48,2.96-4.44-.32-2.2-2.11-3.63-4.4-3.5-2.09,.12-3.58,1.62-3.72,3.75-.03,.39-.03,.78,0,1.17,.03,.73-.26,1.06-1.02,1.06-.81,0-.95-.43-.96-1.11,0-.58-.08-1.17-.21-1.73-.49-2.09-2.11-3.25-4.28-3.13-1.98,.11-3.5,1.55-3.75,3.56-.25,2.01,1,3.81,3.01,4.41,.7,.21,1.41,.17,2.12,.18,.66,0,.92,.31,.92,.95,0,2.92,0,5.83,0,8.75,0,1.02-.61,.99-1.3,.77-2.99-.93-5.51-2.59-7.48-5.03-4.06-5.04-4.52-11.9-1.19-17.46,3.15-5.27,9.51-8.23,15.47-7.19,6.5,1.13,11.49,6.01,12.67,12.37,1.34,7.22-2.93,14.59-9.87,17.04-2.03,.72-2.12,.66-2.12-1.58,0-1.1,0-2.2,0-3.3h0Z"/>
      <path class="cls-2" d="M67.98,85.59c-1.55,0-3.1,0-4.65,0-.69,0-1.38-.13-1.34-1.01,.03-.85,.72-.97,1.41-.97,3.04,0,6.07,0,9.11,0,.19,0,.39,0,.58,.06,.53,.16,.95,.47,.89,1.09-.06,.52-.46,.78-.95,.79-1.23,.04-2.45,.04-3.68,.06-.45,0-.9,0-1.36,0h0Z"/>
      <path class="cls-6" d="M67.94,87.75c1.55,0,3.1,0,4.65,0,.69,0,1.41,.12,1.37,.97-.04,.77-.71,1-1.42,1-.65,0-1.29,.01-1.94,.01-2.13,0-4.26,0-6.4,0-.39,0-.78,0-1.16-.03-.66-.06-1.1-.4-1.05-1.11,.05-.66,.55-.82,1.11-.82,1.23-.02,2.45-.01,3.68-.01,.39,0,.78,0,1.16,0Z"/>
      <path class="cls-5" d="M68.11,79.6c1.55,0,3.1,0,4.65,0,.64,0,1.23,.2,1.21,.93-.02,.67-.55,1.01-1.2,1.01-3.23,.01-6.46,.01-9.69,0-.67,0-1.12-.36-1.09-1.08,.03-.65,.51-.85,1.08-.86,1.68-.01,3.36,0,5.04,0h0Z"/>
      <path class="cls-9" d="M69,71.89c0,1.42-.02,2.84,0,4.26,.01,.74-.12,1.27-1.03,1.25-.78-.01-.97-.46-.97-1.13,0-2.97,.02-5.93,0-8.9,0-.71,.27-1.06,1.02-1.05,.78,.01,.98,.44,.97,1.12-.02,1.48,0,2.97,0,4.45Z"/>
      <path class="cls-9" d="M68.03,91.73c.58,0,1.16-.02,1.74,0,1.1,.05,1.34,.35,1.18,1.42-.22,1.49-1.63,2.7-3.1,2.65-1.59-.06-2.92-1.42-2.96-3.01-.02-.72,.28-1.08,1.02-1.06,.71,.02,1.42,0,2.13,0Z"/>
      <path class="cls-4" d="M64.85,62.73c0,1.32-.08,1.41-1.41,1.43-1.65,.02-2.57-.66-2.57-1.93,0-1.08,.87-2,1.93-2.02,1.25-.02,2.04,.95,2.05,2.52Z"/>
      <path class="cls-7" d="M72.44,64.15c-1.34-.01-1.44-.11-1.44-1.41,0-1.54,.82-2.55,2.05-2.53,1.09,.01,1.93,.89,1.92,2-.01,1.32-.85,1.96-2.54,1.94Z"/>
    </g>
  </g>
</svg>