<?xml version="1.0" encoding="UTF-8"?>
<svg id="_圖層_2" data-name="圖層 2" xmlns="http://www.w3.org/2000/svg" viewBox="0 0 141.05 140.75">
  <defs>
    <style>
      .cls-1 {
        fill: #ad846c;
      }

      .cls-2 {
        fill: #fefefe;
      }
    </style>
  </defs>
  <g id="_圖層_1-2" data-name="圖層 1">
    <g>
      <path class="cls-1" d="M70.42,140.75C32.99,141.08,.23,110.64,0,70.8-.22,31.86,31.13-.05,70.62,0c39.81,.05,70.54,32.53,70.43,70.61-.1,38.93-32.19,70.55-70.63,70.14Z"/>
      <path class="cls-2" d="M102.32,88.8c-.21,.37-.1,.77-.13,1.15-.33,4.14-3.33,7.1-7.48,7.22-1.23,.04-1.55,0-1.65,1.43-.37,4.88-4.69,8.08-9.44,6.96-1.18-.28-1.82-.06-2.66,.78-2.79,2.8-5.64,5.55-8.61,8.16-2.28,2.01-5.04,2.33-7.85,1.23-2.92-1.14-4.46-3.43-4.88-6.5-.04-.32-.05-.65-.03-.97,.06-.76-.28-1.02-1.02-1.03-1.39-.01-2.69-.4-3.87-1.14-2.38-1.5-3.63-3.68-3.66-6.47-.01-1.08-.36-1.38-1.41-1.51-4.46-.58-6.97-3.29-7.16-7.74-.04-1.02-.35-1.34-1.34-1.35-4.28-.01-8.38-4.51-7-9.56,.29-1.06-.09-1.71-.78-2.39-2.62-2.56-4.83-5.41-6.34-8.77-7.16-16.02,2.61-34.57,20.42-37.16,8.12-1.18,15.43,1.07,21.62,6.58q1.49,1.32,3.05-.08c13.4-12.01,34.71-7.56,41.95,8.93,4.28,9.74,2.85,18.97-3.59,27.43-1.1,1.45-1.14,1.42-.28,2.9,3.08,5.25-.45,11.54-6.57,11.73-.44,.01-.91-.14-1.31,.17Z"/>
      <path class="cls-1" d="M68,41.29c-.27,.62-.83,.98-1.29,1.42-3.35,3.16-6.71,6.31-10.07,9.46-.14,.13-.28,.28-.42,.41-3.97,3.56-2.91,8.68,1.58,11.08,3.63,1.94,7.78,1.45,10.83-1.36,3.53-3.25,7.01-6.56,10.5-9.85,1.86-1.75,2.26-1.77,3.95,.02,7.84,8.29,15.67,16.6,23.51,24.89,1.19,1.25,1.87,2.66,1.53,4.4-.66,3.44-4.62,4.95-7.44,2.85-.51-.38-.95-.88-1.4-1.35-6.2-6.55-12.38-13.1-18.58-19.65-.4-.42-.79-.88-1.26-1.2-.66-.45-1.36-.38-1.94,.22-.51,.54-.55,1.17-.19,1.79,.23,.38,.56,.71,.87,1.04,6.19,6.55,12.38,13.1,18.57,19.65,.53,.56,1.09,1.12,1.52,1.76,1.37,2,1.01,4.54-.81,6.14-1.7,1.49-4.34,1.55-6.06-.02-1.43-1.31-2.73-2.77-4.07-4.18-5.21-5.52-10.41-11.04-15.61-16.56-.36-.38-.71-.76-1.1-1.1-.68-.6-1.41-.62-2.11-.04-.59,.49-.68,1.39-.12,2.11,.59,.77,1.28,1.46,1.95,2.17,5.75,6.08,11.51,12.14,17.26,18.22,.53,.56,1.08,1.13,1.53,1.76,1.14,1.61,1.17,3.71,.07,5.28-1.16,1.65-2.78,2.25-4.76,1.95-.94-.14-1.53-.53-1.45-1.65,.28-3.78-3.08-7.51-7.24-7.63-1.23-.03-1.27-.58-1.31-1.55-.13-3.54-2.06-6.09-5.27-7.16-.25-.08-.49-.16-.74-.23-.8-.22-1.89,.23-2.38-.42-.39-.52-.14-1.49-.24-2.26-.4-3.07-2.72-5.61-5.8-6.33-.63-.15-1.28-.23-1.92-.28-.59-.04-.77-.29-.73-.87,.07-.98-.08-1.94-.4-2.87-1.8-5.28-8.3-7.03-12.55-3.31-2.24,1.96-4.36,4.07-6.54,6.11-.28,.27-.58,.53-.84,.81-.52,.55-.96,.46-1.47-.05-4.28-4.17-7-9.08-7.66-15.1-1.3-11.96,6.65-22.27,16.97-24.96,8.09-2.1,15.42-.5,21.81,5,.49,.42,1.01,.82,1.3,1.44Z"/>
      <path class="cls-1" d="M113.31,57.31c-.09,5.49-1.74,10.43-5.25,14.7-1,1.22-1.03,1.23-2.17,.03-6.51-6.87-13.01-13.75-19.51-20.63-.58-.61-1.15-1.23-1.75-1.82-2.06-2.04-4.61-2.18-6.76-.22-3.45,3.14-6.81,6.38-10.22,9.58-.52,.49-1.02,1.01-1.58,1.43-2.25,1.71-5.14,1.74-7.43,.11-2.16-1.53-2.39-3.56-.5-5.39,2.93-2.84,5.93-5.62,8.89-8.43,2.22-2.09,4.43-4.19,6.65-6.27,13.32-12.49,34.78-6.06,39.02,11.7,.41,1.7,.64,3.44,.6,5.2Z"/>
      <path class="cls-1" d="M79.91,101.01c.04,1.3-.35,2.44-1.29,3.34-2.68,2.54-5.32,5.12-8.06,7.59-2.01,1.81-4.93,1.63-6.63-.25-1.71-1.89-1.7-4.58,.21-6.47,2.62-2.6,5.31-5.13,8.05-7.61,1.46-1.32,3.22-1.62,5.06-.76,1.76,.82,2.6,2.24,2.67,4.15Z"/>
      <path class="cls-1" d="M45.54,90.87c0-1.7,.42-2.85,1.34-3.73,2.7-2.6,5.41-5.19,8.19-7.7,1.58-1.43,3.73-1.58,5.41-.59,1.74,1.03,2.56,2.86,2.25,4.97-.14,.94-.57,1.72-1.24,2.35-2.71,2.59-5.41,5.19-8.19,7.71-1.46,1.33-3.21,1.59-5.05,.74-1.76-.82-2.53-2.29-2.71-3.74Z"/>
      <path class="cls-1" d="M54.19,74.09c.02,1.17-.46,2.27-1.4,3.16-2.63,2.49-5.24,5.01-7.93,7.45-2,1.81-4.92,1.67-6.65-.18-1.77-1.91-1.71-4.67,.28-6.62,2.59-2.53,5.23-5.02,7.91-7.46,1.46-1.33,3.2-1.64,5.06-.82,1.72,.75,2.74,2.41,2.72,4.47Z"/>
      <path class="cls-1" d="M71.29,92.07c.03,1.24-.38,2.34-1.24,3.18-2.7,2.61-5.39,5.23-8.2,7.71-2.02,1.78-4.7,1.55-6.46-.32-1.76-1.87-1.78-4.53,.14-6.44,2.62-2.6,5.32-5.11,8.04-7.6,1.48-1.34,3.24-1.59,5.06-.71,1.72,.83,2.59,2.27,2.66,4.17Z"/>
    </g>
  </g>
</svg>