<?xml version="1.0" encoding="UTF-8"?>
<svg id="_圖層_2" data-name="圖層 2" xmlns="http://www.w3.org/2000/svg" viewBox="0 0 142.48 142.17">
  <defs>
    <style>
      .cls-1 {
        fill: #fdfcfc;
      }

      .cls-2 {
        fill: #ad866d;
      }

      .cls-3 {
        fill: #af8a71;
      }

      .cls-4 {
        fill: #fdfcfb;
      }

      .cls-5 {
        fill: #ad846c;
      }

      .cls-6 {
        fill: #fdfdfc;
      }

      .cls-7 {
        fill: #ab876a;
      }

      .cls-8 {
        fill: #b18973;
      }

      .cls-9 {
        fill: #af8270;
      }

      .cls-10 {
        fill: #fefefe;
      }
    </style>
  </defs>
  <g id="_圖層_1-2" data-name="圖層 1">
    <g>
      <path class="cls-5" d="M71.19,142.17C33.26,142.52,.13,111.69,0,71.37-.12,31.82,31.67,0,71.29,0c40.31,0,71.58,33.09,71.19,71.86-.39,38.81-32.47,70.69-71.29,70.31Z"/>
      <path class="cls-10" d="M110.11,111.09c-.72,.04-1.44,.11-2.15,.11-21.44,0-42.88-.04-64.32,.04-5.32,.02-9.59-1.81-12.74-6.09-1.88-2.56-2.64-5.5-2.63-8.68,.02-9.69,0-19.38,0-29.06,0-9.16-.06-18.33,.02-27.49,.05-6.05,2.88-10.53,8.36-13.14,9.19-4.39,20.11,2.44,20.3,12.62,.03,1.64,.04,3.27,0,4.91-.03,.95,.37,1.26,1.28,1.24,2.03-.04,4.07-.04,6.1,0,.96,.02,1.25-.39,1.23-1.29-.04-2.75-.03-5.5,0-8.25,.03-3.13,1.59-4.67,4.74-4.7,1.31-.01,2.62,.03,3.93,0,1.34-.03,2.45,.46,3.31,1.45,2.4,2.77,4.78,5.56,7.16,8.35,.63,.73,.8,1.63,.9,2.55,.2,1.82,.2,1.82,2.06,1.82,6.88,0,13.77,0,20.65,0,.59,0,1.18-.03,1.77,.02,1.36,.12,2.54,.58,3.23,1.87-.53,1.76-2.18,1.14-3.34,1.58-6.94,.13-13.89,.02-20.83,.06-2.54,.02-2.63,.1-2.65,2.67-.02,3.21,.04,6.41-.03,9.62-.03,1.46,.52,1.95,1.96,1.91,2.95-.08,5.9-.08,8.84,0,4.24,.11,6.1,1.97,6.12,6.2,.05,7.52,.03,15.05,0,22.57,0,1.56,.25,2.63,2.09,2.86,1.11,.14,1.92,.92,1.88,2.16-.04,1.34-.98,1.91-2.17,2.15-.77,.16-1.56,.14-2.35,.14-12.45,0-24.9,0-37.35,0-.92,0-1.84,.03-2.73-.22-1.03-.29-1.79-.88-1.84-2.02-.06-1.14,.65-1.78,1.65-2.17,.61-.24,1.3-.21,1.84-.64,.66-.75,.68-1.66,.68-2.59,0-13.35,0-26.71,0-40.06,0-2.48-.25-2.74-2.67-2.75-5.2,0-4.82-.44-4.82,4.72-.02,14.4,.04,28.8-.03,43.2-.13,1.2-.8,1.97-2,2.01-1.17,.03-1.65-.91-2-1.86-.2-.55-.27-1.14-.38-1.72-.98-5.24-5.03-8.8-10.19-8.96-4.89-.16-9.61,3.31-10.73,7.87-1.29,5.28,.89,10.04,5.72,12.5,1.18,.6,2.44,.94,3.7,1.3,.83,.26,1.68,.27,2.53,.27,21.31,0,42.61,0,63.92,0,2.68,0,2.98-.3,2.98-3.1,0-17.41,0-34.82,0-52.23,0-.79-.04-1.57,.04-2.35,.07-.63,.05-1.46,.97-1.42,.77,.03,1.35,.53,1.44,1.36,.08,.71,.09,1.44,.09,2.15,0,18.13,0,36.26,0,54.39,0,2.34-.57,2.98-2.88,3.44-.65,.13-1.3,.11-1.96,.11-22.16-.03-44.31,.07-66.47-.04-.04,0-.07,.08-.11,.13-.26,.04,.03,.41-.08,.17-.04-.08,.03-.09,.14-.14,.44-.22,.89-.09,1.34-.09,21.57,0,43.14-.01,64.7,.02,.59,0,1.49-.53,1.78,.57Z"/>
      <path class="cls-6" d="M110.04,48.27c1.15-.07,2.3-.16,3.26-.9,.89,.79,.83,1.86,.83,2.91,0,5.95,0,11.9,0,17.86,0,12.56,0,25.12,0,37.68,0,.46,.02,.92-.01,1.37-.15,2.37-1.54,3.71-4.02,3.91-.72-.68-1.62-.39-2.44-.39-21.36-.02-42.73-.01-64.09-.01h-2.13c-.01-.13-.02-.26-.03-.39h1.91c21.43,0,42.86-.02,64.29,.05,1.7,0,3.11-.84,4.73-.96,.57-.04,.77-.68,.84-1.2,.08-.58,.06-1.17,.06-1.76,0-17.6-.01-35.2,.04-52.8,0-1.06-.68-2.06-.16-3.16,.13-.28,0-.35-1.46-1.12v2.15c0,18.06,0,36.12,0,54.17,0,.52,.03,1.05-.01,1.57-.09,1.21-.55,1.62-1.73,1.59-1.05-.03-2.09-.11-3.14-.11-21.17,0-42.34,0-63.5-.02-.82,0-1.72,.3-2.44-.39,1.01-1.02,2.32-.75,3.53-.75,19.26-.02,38.52-.01,57.78-.01,1.9,0,3.8,.02,5.7-.01,2.3-.04,2.61-.33,2.62-2.64,.03-7.52,.01-15.04,.01-22.56,0-8.76,0-17.53,0-26.29,0-2.6,.16-5.21-.46-7.78Z"/>
      <path class="cls-5" d="M110.04,48.27c1.02,.49,1.27,1.33,1.26,2.41-.04,4.84-.02,9.67-.02,14.51,0,13.27,0,26.54,0,39.81,0,.33,0,.65,0,.98-.04,2.03-.35,2.32-2.45,2.36-.26,0-.52,0-.79,0-21.28,0-42.56,0-63.84,0-1.11,0-2.22-.01-3.34-.02-1.76-.52-3.47-1.11-4.99-2.21-4.12-3-5.76-8.53-3.91-13.31,1.87-4.83,6.91-7.84,12.07-7.21,5.09,.62,9.2,4.69,9.86,9.76,.05,.39,.1,.78,.14,1.17,.08,.74,.21,1.46,1.02,1.75,.95,.34,1.45-.29,1.94-.94,.36-.68,.18-1.41,.18-2.11,.01-14.68,0-29.35,.02-44.03,0-.73-.27-1.53,.33-2.23,.65,.49,.49,1.21,.7,1.78,.09,.24,.1,.48,.04,.72-.22,1.95-.09,3.91-.09,5.86-.01,12-.01,24.01,0,35.97,0-13.24,0-26.44-.02-39.64,0-1.23,.37-2.47-.07-3.68-.28-.96-.1-1.41,1.07-1.4,1.72,0,3.44,.27,5.17,.09,.75-.08,1.08,.37,1.09,1.24,.06,5.08,.03,10.15,.03,15.23,0,9.35,0,18.7,0,28.05,0,.7,.2,1.44-.19,2.11-.76,.3-1.56,.09-2.33,.17-1.1,.11-1.7,.68-1.63,1.56,.08,.96,.73,1.33,1.6,1.4,.39,.03,.79,.01,1.18,.01,13.37,0,26.74,0,40.11,0,.52,0,1.06,.03,1.57-.07,.79-.16,1.28-.66,1.23-1.52-.04-.76-.52-1.18-1.23-1.32-.38-.08-.78-.05-1.17-.06-1.87-.05-1.88-.05-1.88-1.99,0-8.11-.11-16.23,.05-24.34,.07-3.51-2.3-5.25-5.22-5.16-3.54,.11-7.08,.01-10.62,.08-.88,.02-1.32-.06-1.31-1.1,.04-4.45,.03-8.9,0-13.35,0-.9,.29-1.36,1.25-1.29,.59,.04,1.18,0,1.77,0,7.14-.01,14.29-.03,21.43-.04Z"/>
      <path class="cls-5" d="M53.75,87.78c-3.18-3.32-6.8-5.12-11.28-5.07-4.46,.05-8.02,1.94-11,5.22-.5-.74-.35-1.34-.35-1.9,0-14.99,0-29.98,0-44.97,0-2.38,.34-4.68,1.53-6.81,2.47-4.43,7.52-6.69,12.55-5.58,4.8,1.06,8.45,5.38,8.75,10.35,.03,.52,.04,1.05,.04,1.57,0,14.99,0,29.98,0,44.97,0,.65,.11,1.31-.24,2.23Z"/>
      <path class="cls-5" d="M82.64,69.3c0,7.79,0,15.58,0,23.37,0,.46,.03,.92,0,1.37-.04,.48,.22,1.14-.5,1.32-.63,.16-1.32,.2-1.94-.06-.42-.18-.34-.66-.35-1.05-.01-1.57,.05-3.15-.04-4.71-.12-2.18-1.76-3.83-3.85-4.02-2.25-.2-4.14,1.15-4.64,3.36-.13,.57-.12,1.17-.13,1.76-.02,1.24-.04,2.49,0,3.73,.04,1.09-.66,1.07-1.43,1.08-.82,.01-1.39-.11-1.37-1.15,.04-3.01,.03-6.02,0-9.03-.01-.96,.42-1.26,1.31-1.23,1.11,.04,2.23,.02,3.34,.01,.46,0,.92,0,1.37-.08,.78-.13,1.1-.67,1.07-1.41-.03-.75-.41-1.28-1.19-1.31-1.51-.05-3.02-.01-4.52-.05-1.31-.03-1.35-.09-1.37-1.31-.02-1.34,.07-1.45,1.4-1.49,1.31-.03,2.62,.03,3.93-.03,1.19-.05,1.74-.56,1.75-1.43,0-.88-.56-1.45-1.69-1.51-1.37-.07-2.75,0-4.13-.04-1.19-.03-1.27-.16-1.26-1.42,.01-1.23,.07-1.32,1.34-1.35,1.44-.03,2.89,.04,4.33-.04,1.2-.07,1.79-1.1,1.29-2.06-.31-.6-.88-.74-1.5-.74-1.38,0-2.75,.02-4.13-.02-1.24-.03-1.32-.15-1.32-1.37,0-1.23,.09-1.35,1.31-1.39,1.05-.04,2.1,0,3.15,0,.46,0,.93,0,1.37-.09,.76-.18,1.32-.6,1.26-1.49-.06-.86-.62-1.26-1.4-1.39-.38-.06-.78-.04-1.18-.04-.98,0-1.97,.01-2.95,0-1.52-.03-1.55-.11-1.57-1.52-.01-.91,.28-1.31,1.24-1.27,1.37,.06,2.75,.04,4.13,0,1.23-.04,1.73-.49,1.73-1.4,0-.92-.48-1.37-1.72-1.41-1.38-.05-2.75-.06-4.13,0-.95,.03-1.27-.35-1.26-1.27,.02-1.29,.09-1.47,1.19-1.52,1.05-.05,2.1-.01,3.15-.02,.46,0,.92,0,1.37-.06,.78-.12,1.36-.48,1.39-1.38,.02-.84-.48-1.43-1.47-1.49-1.37-.08-2.75-.02-4.13-.04-1.44-.03-1.5-.14-1.49-1.59,0-.81,.24-1.22,1.11-1.19,1.18,.04,2.36,.02,3.54,0,.46,0,.93,0,1.37-.1,.73-.17,1.1-.67,1.07-1.43-.03-.77-.44-1.26-1.21-1.29-1.44-.06-2.88-.03-4.33-.07-1.37-.04-2.02-1.1-1.47-2.36,.23-.54,.72-.51,1.16-.51,1.38-.02,2.75-.01,4.13-.03,.67-.01,1.33-.09,1.63-.83,.4-.97-.25-1.91-1.48-1.98-1.37-.08-2.75-.06-4.13-.01-.96,.03-1.47-.21-1.42-1.3,.07-1.31-.02-2.62,.03-3.93,.05-1.4,.5-1.8,1.94-1.88,.13,0,.26,0,.39,0q4-.08,6.62,2.92c1.42,1.63,2.78,3.31,4.23,4.91,.76,.83,1.05,1.72,1.05,2.84-.03,8.18-.02,16.37-.02,24.55h.01Z"/>
      <path class="cls-5" d="M85.61,81.5c0-3.99-.01-7.98,0-11.97,0-2.3,.21-2.51,2.42-2.52,3.21-.02,6.42-.03,9.63,0,1.84,.01,2.17,.34,2.17,2.2,.02,8.24,.02,16.48,0,24.72,0,1.35-1.12,2.01-2.34,1.44-.45-.21-.43-.61-.43-.99-.01-1.24,0-2.49,0-3.73,0-.65-.02-1.3-.21-1.94-.64-2.21-2.46-3.43-4.76-3.16-1.97,.23-3.54,1.89-3.64,4-.08,1.57,0,3.14-.04,4.71-.03,1.12-.19,1.18-1.48,1.21-.87,.02-1.33-.2-1.32-1.2,.03-4.25,.01-8.5,.01-12.75Z"/>
      <path class="cls-2" d="M65.25,95.28c0-14.2,0-28.4-.01-42.59,0-.72,.32-1.55-.6-2.09-.25-.15-.5-.87,.4-.79,.22,.02,.16-.29,.08-.45-.18-.33-.53-.34-.85-.41-.3-.07-.52,.04-.55,.37-.04,.38-.06,.76-.2,1.23-.16-1.16-.71-1.68-1.87-1.55-.94,.11-1.92,.14-2.85,0-.91-.14-.52,.46-.62,.8,.28,.39,.27,.79,0,1.18-.57-.32-.22-1.09-.79-1.75v2.4c0,14.48,0,28.97-.01,43.45,0,.76,.25,1.58-.37,2.24-.01-6.67-.04-13.33-.04-20,0-9.09,0-18.17,0-27.26,0-1.73,.02-1.75,1.72-1.76,1.83-.02,3.67,.04,5.5-.01,1.03-.03,1.43,.4,1.37,1.39-.03,.39,0,.78,0,1.18,0,14.12,0,28.24-.01,42.36,0,.68,.28,1.44-.28,2.06Z"/>
      <path class="cls-8" d="M77.01,92.23c0,.59,.03,1.17,0,1.76-.03,.48,.21,1.14-.44,1.35-.68,.22-1.42,.22-2.11-.01-.36-.12-.38-.5-.38-.82,0-1.5,0-2.99,.05-4.49,.03-.86,.43-1.52,1.37-1.62,.79-.09,1.4,.62,1.51,1.69,.01,.13,0,.26,0,.39,0,.59,0,1.17,0,1.76Z"/>
      <path class="cls-1" d="M108.5,102.14c-.35,1.75-.47,1.91-2.08,1.91-9.14,.02-18.28,.02-27.41,0-1.79,0-1.97-.28-1.91-2.3,.29-.85,1.02-.67,1.65-.67,9.23,0,18.46,0,27.68-.01,.91,0,1.71,.09,2.07,1.08Z"/>
      <path class="cls-10" d="M66.87,104.06c-1.57,0-3.13,0-4.7,0-.45,0-.93,.01-1.36-.1-.62-.17-1-.63-1.01-1.29-.02-.66,.36-1.12,.97-1.32,.36-.12,.77-.12,1.16-.13,3.33-.01,6.66,0,9.99,0,.33,0,.66,0,.98,.06,.76,.12,1.16,.63,1.16,1.35,0,.82-.44,1.38-1.31,1.4-1.57,.04-3.13,.02-4.7,.03-.39,0-.78,0-1.18,0Z"/>
      <path class="cls-9" d="M58.17,50.99v-1.18c.56,.53,.39,1.21,.39,1.85,0,13.96,0,27.91,0,41.87,0,.63,.17,1.32-.39,1.85-.31-.48-.19-1.01-.19-1.53,0-13.65,0-27.29,0-40.94,0-.51-.12-1.05,.19-1.53v-.39Z"/>
      <path class="cls-2" d="M58.17,51.38v43.99c.25,.07-.19-.02-.07,.2,.05,.1-.23,.2-.24,.07-.06-.44-.08-.89-.08-1.34,0-13.63,0-27.26,0-40.89,0-.69-.21-1.45,.39-2.04Z"/>
      <path class="cls-3" d="M108.5,102.14c-.57-.74-1.33-.94-2.25-.93-9.04,.02-18.08,.01-27.12,0-.74,0-1.43,.08-2.04,.54,.04-.42,.19-.77,.66-.82,.32-.04,.65-.05,.97-.05,9.26,0,18.53,0,27.79,0,.92,0,1.92-.1,1.97,1.27Z"/>
      <path class="cls-7" d="M106.47,104.7h-27.36v-.19h27.36v.19Z"/>
      <path class="cls-10" d="M34.07,61.91c0-5.03,0-10.07,0-15.1,0-.52-.02-1.05,.06-1.56,.11-.75,.63-1.18,1.36-1.16,.7,.02,1.25,.42,1.38,1.17,.08,.45,.06,.91,.06,1.37,0,10.13,0,20.26,0,30.39,0,.46,.01,.92-.05,1.37-.11,.8-.53,1.33-1.41,1.32-.87,0-1.32-.49-1.37-1.34-.03-.52-.03-1.05-.03-1.57,0-4.97,0-9.94,0-14.9Z"/>
      <path class="cls-4" d="M34.09,38.18c0-.45-.03-.91,0-1.35,.06-.74,.45-1.2,1.22-1.24,.81-.05,1.46,.26,1.53,1.12,.09,1.09,.11,2.2,0,3.28-.08,.78-.67,1.23-1.51,1.19-.77-.04-1.17-.52-1.23-1.25-.05-.58-.01-1.16-.01-1.74Z"/>
    </g>
  </g>
</svg>