<?xml version="1.0" encoding="UTF-8"?>
<svg id="_圖層_2" data-name="圖層 2" xmlns="http://www.w3.org/2000/svg" viewBox="0 0 142.44 142.25">
  <defs>
    <style>
      .cls-1 {
        fill: #b18c75;
      }

      .cls-2 {
        fill: #ae856e;
      }

      .cls-3 {
        fill: #fdfdfb;
      }

      .cls-4 {
        fill: #ac8469;
      }

      .cls-5 {
        fill: #b08972;
      }

      .cls-6 {
        fill: #b18a73;
      }

      .cls-7 {
        fill: #ad846c;
      }

      .cls-8 {
        fill: #fcfcfb;
      }

      .cls-9 {
        fill: #ad846d;
      }

      .cls-10 {
        fill: #ad856d;
      }

      .cls-11 {
        fill: #af8972;
      }

      .cls-12 {
        fill: #ab876a;
      }

      .cls-13 {
        fill: #ae856d;
      }

      .cls-14 {
        fill: #fefefe;
      }
    </style>
  </defs>
  <g id="_圖層_1-2" data-name="圖層 1">
    <g>
      <path class="cls-7" d="M142.44,71.2c.19,39.4-32.65,71.66-72.36,71.05C32.86,141.67,.06,111.52,0,71.24-.06,31.81,31.65-.07,71.41,0c40.08,.08,71.26,32.74,71.02,71.2Z"/>
      <path class="cls-14" d="M31.36,35.93c-.02-.11,.01-.19,.1-.26,.12-.11,.25-.19,.4-.22,.14-.07,.19-.18,.14-.34,.13-.38,.38-.7,.54-1.06h0c.69-.11,.99-.58,1.14-1.2l.03-.04c.78-.05,1.23-.54,1.57-1.18,1.62-1.15,3.45-1.49,5.39-1.49,5.31,0,10.62,0,15.92,0,12.91,0,25.82,0,38.73,0,3.9,0,6.97,1.54,9.11,4.83,1.1,1.7,1.56,3.6,1.56,5.6,.02,5.56,.03,11.12,0,16.68-.02,3.24-1.71,4.92-5.02,4.98-3.54,.07-7.08,.02-10.62,.03-1.85,0-1.87,.02-1.87,1.82,0,4.97,0,9.94,0,14.92,0,.43-.17,.91,.29,1.35,.64-.2,.96-.79,1.38-1.25,4.73-5.26,9.46-10.5,14.17-15.78,1.4-1.57,3.03-2.71,5.18-2.89,3.1-.27,5.58,.91,7.11,3.6,1.52,2.67,1.41,5.43-.46,7.93-1.13,1.51-2.46,2.89-3.72,4.3-7.53,8.37-15.05,16.75-22.63,25.07-.95,1.05-1.4,2.08-1.35,3.49,.1,2.61,.04,5.23,.02,7.85-.03,3.04-1.7,4.73-4.76,4.73-16.25,.01-32.5,0-48.76,.01-1.21,0-2.36-.12-3.2-1.14-1.58-1.88-1.24-4.27-1.26-6.35-.14-23.63-.09-47.26-.09-70.89,0-.27,.04-.52,.15-.76-.06-.09-.05-.17,.03-.25,.08-.13,.19-.16,.31-.09,.22,.12,.12,.02,.03-.09-.03-.03-.02-.1-.03-.16,.17-.59,.27-1.18,.44-1.76Z"/>
      <path class="cls-3" d="M30.57,38.27c.02,.85,.04,1.7,.04,2.55,0,22.6,0,45.2,0,67.79,0,.96-.15,1.94,.58,2.79,.35,.4,.28,1.03,.18,1.52-.23,1.17-.1,2.28,.38,3.35-1.13-.77-1.54-1.89-1.55-3.2,0-.85,0-1.7,0-2.55,0-23.13,0-46.26,0-69.38,0-.96-.22-1.97,.35-2.87Z"/>
      <path class="cls-12" d="M97.34,29.51c-1.91,.32-56.88,.31-58.7,0h58.7Z"/>
      <path class="cls-3" d="M35.28,31.64c.11,1.29-.36,1.64-1.57,1.18,.38-.58,.91-.97,1.57-1.18Z"/>
      <path class="cls-3" d="M33.69,32.85c.28,1.39,.19,1.5-1.14,1.19,.22-.55,.62-.93,1.14-1.19Z"/>
      <path class="cls-3" d="M31.01,38.03c-.14,0-.27,0-.41,0-.03-.8,.26-1.48,.75-2.1,.1,.73,.04,1.44-.34,2.1Z"/>
      <path class="cls-3" d="M32.19,35.67c-.24,0-.49,0-.73,0,.19-.66,.5-1.23,1.09-1.62-.12,.54-.24,1.08-.36,1.61h0Z"/>
      <path class="cls-7" d="M87.76,33.77c-1.82,2.58-2.22,5.46-2.2,8.56,.08,13.22,.01,26.44,.06,39.67,0,1.55-.39,2.75-1.5,3.84-1.44,1.41-2.63,3.07-4.25,4.53-.82-1.71-1.87-3.08-3.77-3.49-.68-.15-.67-.71-.67-1.24,0-1.18,0-2.36,0-3.53,0-5.04,0-10.08,0-15.12,0-1.84,.02-1.84,1.82-1.86,.72,0,1.44,.03,2.16,0,2.47-.11,3.72-1.77,2.99-4.13-.69-2.25-1.54-4.45-2.33-6.67-.37-1.05-.72-2.1-1.12-3.14-.52-1.36-1.53-2.11-3-2.12-3.28-.02-6.56-.01-9.83,0-1.56,0-2.61,.77-3.12,2.23-1.14,3.21-2.3,6.4-3.38,9.63-.8,2.41,.47,4.11,3.05,4.21,.92,.03,1.84,.04,2.75,0,.85-.04,1.2,.35,1.2,1.15,0,.33,.02,.65,.02,.98,0,5.76-.02,11.52,.02,17.28,0,1.35-.17,2.26-1.75,2.76-1.95,.62-2.72,2.36-2.73,4.35-.02,2.65,.47,2.53-2.76,2.5-1.51-.01-1.57-.06-1.57-1.55,0-1.54-.28-3.13,1.1-4.38,.54-.49,.42-1.35,.39-2.07-.03-1,.15-1.86,.73-2.76,1.37-2.12,.93-4.37-1.17-5.85-.9-.63-1.09-1.31-1.08-2.28,.04-2.36,.04-4.71,.01-7.07-.04-3.52-2.15-5.84-5.65-6.04-2.48-.14-4.99-.13-7.47-.01-3.53,.17-5.77,2.59-5.82,6.14-.04,2.42-.03,4.84,0,7.27,0,.84-.21,1.4-.96,1.95-2.12,1.55-2.52,3.84-1.11,6.04,.51,.79,.61,1.55,.61,2.4,0,1.13,.09,2.24,.98,3.09,.79,.76,.42,1.73,.46,2.61,.05,1.13,.19,2.21-.99,3.12-.92,.71-.25,2.08,1,2.24,.58,.08,1.18,.04,1.77,.04,10.95,0,21.9,0,32.85,0,.52,0,1.04,0,1.46,0,.47,.58,.13,1,0,1.39-1.07,2.95-2.22,5.88-3.21,8.85-.39,1.17-1.04,1.43-2.17,1.43-6.82-.04-13.64-.02-20.46-.02-.59,0-1.19-.01-1.76,.09-.75,.14-1.08,.7-1.05,1.44,.02,.67,.36,1.13,1.02,1.26,.51,.1,1.04,.12,1.56,.12,7.47,0,14.95,0,22.42,.01,1.01,0,1.82-.31,2.72-.84,2.13-1.27,4.41-2.3,6.65-3.38,1.52-.73,2.96-1.64,4.86-2.23,0,2.77,.03,5.35-.02,7.93-.02,.82-.61,1.3-1.42,1.38-.65,.07-1.31,.06-1.96,.06-14.95,0-29.9,0-44.85,0-.78,0-1.57,.05-2.35,.08-1.27,.22-1.84-.56-1.91-1.61-.08-1.24-.26-2.47-.26-3.71,0-22.51,0-45.02,.02-67.53,0-2.37,.41-4.68,2.23-6.46l-.02,.03c1.37-1.9,3.42-2.25,5.55-2.39,.78,.03,1.56,.09,2.35,.09,14.32,0,28.64,0,42.96,0,.65,0,1.32-.14,1.93,.12,.35,.15,.19,.4-.01,.6-1.59-.5-3.23-.23-4.83-.24-12.71-.04-25.41-.02-38.12-.03-.69,0-1.39,.09-1.72,0,13.03,0,26.41-.02,39.8,.02,1.62,0,3.26-.21,4.86,.24Z"/>
      <path class="cls-7" d="M88.49,49.01c0-2.94-.06-5.89,.02-8.83,.08-3.03,1.98-5.59,4.75-6.6,2.81-1.03,5.88-.28,7.89,1.95,1.13,1.26,1.83,2.75,1.84,4.44,.04,5.76,.04,11.51,.01,17.27,0,1.53-.46,1.97-2.02,1.98-3.73,.03-7.47-.02-11.2,.03-1.08,.01-1.32-.44-1.31-1.4,.04-2.94,.01-5.89,.01-8.83h0Z"/>
      <path class="cls-7" d="M86.16,100.64c-1.79-1.6-3.62-3.28-5.49-4.91-.69-.6-.5-1.08,0-1.64,1.36-1.5,2.71-3.02,4.06-4.53,4.68-5.21,9.37-10.41,14.05-15.62,.18-.19,.35-.39,.53-.58,.93-.95,.94-.96,2.02-.02,1.53,1.34,3,2.73,4.56,4.03,.69,.58,.62,.97,.05,1.58-1.86,2.02-3.67,4.09-5.51,6.14-4.37,4.87-8.75,9.73-13.13,14.6-.3,.34-.54,.75-1.15,.95Z"/>
      <path class="cls-7" d="M54.98,71.93c0,.46,.02,.92,0,1.37-.06,1.17,.4,2.5-.22,3.46-.6,.94-1.81,1.45-2.4,2.52-.22,.39-.68,.33-1.07,.33-1.9,0-3.8-.01-5.7,.01-.65,0-1.12-.18-1.43-.78-.18-.34-.41-.75-.73-.91-1.5-.75-1.58-2.02-1.52-3.46,.09-2.02-.01-4.06,.04-6.08,.06-2.24,1.05-3.23,3.26-3.26,2.16-.04,4.32-.04,6.49,0,2.18,.04,3.22,1.09,3.28,3.27,.03,1.18,0,2.35,0,3.53Z"/>
      <path class="cls-7" d="M62.43,61.83c1.11-3.08,2.19-6.08,3.28-9.07,.21-.58,.69-.72,1.26-.72,2.75,.02,5.5,.04,8.25,.04,.59,0,.98,.21,1.18,.8,.93,2.72,1.89,5.43,2.84,8.14,.36,1.02-.28,1.08-1.01,1.08-5.04,0-10.08-.02-15.12-.03-.12,0-.24-.08-.68-.23Z"/>
      <path class="cls-9" d="M110.29,63.23c1.71,.1,3.03,.85,3.87,2.33,.86,1.52,.76,3.12-.27,4.44-1.44,1.86-3.11,3.54-4.67,5.31-.39,.44-.76,.43-1.17,.05-1.75-1.58-3.5-3.16-5.25-4.73-.45-.4-.36-.75,.01-1.16,1.51-1.64,2.97-3.31,4.5-4.94,.79-.85,1.85-1.21,2.98-1.31Z"/>
      <path class="cls-3" d="M35.03,35.32c-1.53,2.04-1.82,4.35-1.82,6.84,.05,23.16,.03,46.32,.02,69.48,0,1.36-.09,2.7,1.72,2.99-1.26,.33-2.27-.2-2.33-1.36-.1-1.95-.46-3.87-.46-5.84,.05-21.7,.05-43.41,0-65.11,0-2.23,.97-4.11,1.64-6.12,.19-.56,.72-.72,1.22-.88Z"/>
      <path class="cls-7" d="M72.39,76.06c0,3.07,.01,6.15,0,9.22,0,1.35-1.1,1.99-2.35,1.43-.27-.12-.4-.32-.43-.59-.03-.33-.04-.65-.04-.98,0-6.15,0-12.3,0-18.45,0-1.55,.03-1.55,1.28-1.59,1.43-.04,1.51,.02,1.52,1.53,.02,3.14,0,6.28,0,9.42h0Z"/>
      <path class="cls-10" d="M48.41,82.48c.59,0,1.18,.05,1.77,0,1.26-.12,2.26,.1,2.94,1.36,.48,.89,1.47,1.25,2.44,1.52,.44,.12,.94,.24,.87,.86-.08,.64-.61,.58-1.06,.58-2.16,.01-4.32,0-6.49,0-2.29,0-4.59,.02-6.88-.01-.53,0-1.3,.3-1.48-.53-.18-.85,.62-.87,1.14-1.03,.84-.26,1.73-.62,2.08-1.38,.63-1.36,1.67-1.47,2.9-1.38,.59,.04,1.18,0,1.77,0Z"/>
      <path class="cls-13" d="M70.87,94.15c-1.51,0-3.01-.02-4.52,0-.85,.02-1.19-.36-1.14-1.18,.03-.46-.02-.92,.02-1.37,.1-1.3,.51-1.74,1.85-1.76,2.62-.05,5.24-.05,7.86,0,1.38,.02,1.7,.4,1.8,1.77,.01,.2,0,.39,0,.59,.02,1.93,.02,1.94-1.95,1.95-1.31,0-2.62,0-3.93,0h0Z"/>
      <path class="cls-2" d="M83.46,102.72c-2.62,1.28-5.17,2.53-7.81,3.82-.04-1.54,1.55-6.22,2.89-8.64,1.19,1.05,2.37,2.06,3.51,3.1,.47,.43,1.06,.76,1.41,1.72Z"/>
      <path class="cls-5" d="M48.49,94.15c-.32,0-.65,0-.97,0-.58,0-.83-.32-.74-.87,.15-.89,.32-1.78,.51-2.66,.13-.6,.53-.83,1.13-.81,.56,.02,1.03,.11,1.14,.77,.11,.64,.24,1.27,.38,1.9,.34,1.55,.55,1.67-1.45,1.66Z"/>
      <path class="cls-1" d="M54.99,92.1c0,.39,0,.78,0,1.17,0,.52-.2,.87-.79,.88-.51,0-.92-.14-1.05-.67-.19-.75-.36-1.52-.47-2.28-.18-1.23,.1-1.47,1.36-1.39,.63,.04,.97,.28,.96,.93,0,.45,0,.91,0,1.36Z"/>
      <path class="cls-11" d="M41.92,91.88c0-.19,0-.39,0-.58,.05-1.38,.44-1.7,1.76-1.46,.45,.08,.71,.28,.61,.77-.2,.95-.41,1.89-.61,2.84-.12,.53-.46,.73-.99,.7-.59-.03-.75-.41-.76-.91-.01-.45,0-.9,0-1.36,0,0,0,0,0,0Z"/>
      <path class="cls-6" d="M40.39,82.43c-.73-.02-1.39-.66-1.4-1.36-.02-.77,.75-1.46,1.55-1.4,.73,.06,1.3,.71,1.27,1.46-.04,.75-.66,1.32-1.42,1.3Z"/>
      <path class="cls-1" d="M56.47,79.67c.74,0,1.33,.61,1.35,1.37,.02,.77-.54,1.37-1.3,1.4-.82,.03-1.53-.68-1.48-1.45,.05-.71,.72-1.32,1.43-1.31Z"/>
      <path class="cls-3" d="M40.56,32.96c-2.07,.29-3.95,1.02-5.55,2.39,.61-1.69,2.06-2.16,3.61-2.4,.63-.1,1.29,0,1.94,0Z"/>
      <path class="cls-3" d="M31.14,39.26c-.06-.23-.15-.37-.11-.47,.08-.24-.27-.6,.17-.72,.09-.02,.25,.07,.32,.16,.27,.31,.06,.58-.11,.85-.03,.05-.1,.07-.28,.18Z"/>
      <path class="cls-3" d="M32.19,35.67c.24,.04,.51,.05,.56,.36,0,.06-.14,.21-.2,.2-.31-.05-.31-.32-.36-.56h0Z"/>
      <path class="cls-3" d="M32.07,112.71s-.1,.04-.12,.03c-.03-.03-.03-.09-.05-.13,.04-.01,.1-.04,.12-.03,.03,.03,.03,.09,.04,.13Z"/>
      <path class="cls-14" d="M56.46,36.01c4.91,0,9.83,0,14.74,0,.52,0,1.05-.02,1.57,.06,.74,.12,1.15,.63,1.12,1.38-.02,.73-.4,1.25-1.16,1.36-.51,.07-1.04,.06-1.57,.06-9.83,0-19.65,0-29.48,0-.52,0-1.06,.02-1.57-.07-.74-.13-1.15-.66-1.15-1.38,0-.73,.45-1.23,1.18-1.36,.51-.09,1.04-.06,1.57-.06,4.91,0,9.83,0,14.74,0Z"/>
      <path class="cls-4" d="M87.76,33.77c-1.88,.26-3.75-.08-5.62-.07-12.78,.01-25.56,0-38.34,0-.69,0-1.38,0-2.41,0,.83-.53,1.37-.38,1.88-.38,14.09,0,28.18-.01,42.27,0,.77,0,1.59-.2,2.24,.45,0,0-.02,0-.02,0Z"/>
      <path class="cls-14" d="M41.24,111.58c-.71,0-1.43,.02-2.14,0-.89-.03-1.49-.43-1.52-1.4-.02-.85,.46-1.41,1.45-1.45,1.42-.07,2.86-.07,4.28,0,.94,.05,1.49,.7,1.45,1.49-.05,.85-.56,1.26-1.38,1.34-.13,.01-.26,.03-.39,.03-.58,0-1.17,0-1.75,0h0Z"/>
      <path class="cls-8" d="M79.69,36.03c.52,0,1.04-.02,1.56,0,.86,.04,1.33,.52,1.34,1.36,.02,.81-.37,1.41-1.24,1.45-1.04,.05-2.08,.03-3.13,.01-.87-.02-1.29-.57-1.39-1.36-.09-.77,.53-1.37,1.48-1.47,.45-.05,.91,0,1.37,0h0Z"/>
    </g>
  </g>
</svg>