<?xml version="1.0" encoding="UTF-8"?>
<svg id="_圖層_2" data-name="圖層_2" xmlns="http://www.w3.org/2000/svg" viewBox="0 0 27.19 34.66">
  <defs>
    <style>
      .cls-1 {
        fill: #c30d23;
      }

      .cls-2 {
        fill: #fff;
      }
    </style>
  </defs>
  <g id="_圖層_4" data-name="圖層_4">
    <g>
      <circle class="cls-2" cx="13.59" cy="13.39" r="5.5"/>
      <path class="cls-1" d="M26.87,10.86C25.54,4.2,20.16.48,14.97.06c-2.43-.2-4.79.07-7,1.12C2.7,3.7.26,8.02,0,13.72c.03.53.04,1.04.1,1.55.28,2.65,1.19,5.06,2.84,7.14,1.84,2.34,3.77,4.62,5.66,6.92,1.31,1.6,2.62,3.2,3.94,4.78.61.73,1.49.72,2.12.01.08-.09.16-.19.24-.29,2.92-3.55,5.84-7.11,8.77-10.66,2.99-3.61,4.13-7.73,3.21-12.32ZM13.6,18.65c-2.91,0-5.32-2.4-5.33-5.3-.01-2.94,2.42-5.36,5.36-5.35,2.9.01,5.29,2.43,5.29,5.34,0,2.89-2.44,5.32-5.32,5.31Z"/>
    </g>
  </g>
</svg>