<?xml version="1.0" encoding="UTF-8"?>
<svg id="_圖層_2" data-name="圖層 2" xmlns="http://www.w3.org/2000/svg" viewBox="0 0 277.92 121.02">
  <defs>
    <style>
      .cls-1 {
        fill: none;
        opacity: .7;
        stroke: #534741;
        stroke-miterlimit: 10;
        stroke-width: 1.05px;
      }

      .cls-2 {
        fill: #c46e00;
      }

      .cls-3 {
        fill: #534741;
      }

      .cls-4 {
        fill: #bc1306;
      }

      .cls-5 {
        fill: #d1c900;
      }

      .cls-6 {
        fill: #008238;
      }

      .cls-7 {
        fill: #008256;
      }

      .cls-8 {
        fill: #d29a6d;
      }

      .cls-9 {
        fill: #c68080;
      }

      .cls-10 {
        fill: #2a2c84;
      }

      .cls-11 {
        fill: #006783;
      }

      .cls-12 {
        fill: #82af74;
      }

      .cls-13 {
        fill: #6a98c2;
      }

      .cls-14 {
        fill: #33718d;
      }
    </style>
  </defs>
  <g id="bg">
    <g>
      <g>
        <circle class="cls-1" cx="60.51" cy="60.51" r="59.98"/>
        <g>
          <g>
            <polygon class="cls-11" points="48.62 44.04 70.76 22.09 102.04 53.65 86.31 53.65 86.31 70.57 79.03 70.57 79.03 46.78 85.65 46.78 70.38 31.51 57.85 44.04 48.62 44.04"/>
            <path class="cls-6" d="M45.92,46.86h15.83v23.92h-7.17v-5.62c0,.11-.62,.47-.7,.52-.65,.46-1.32,.89-2,1.29-2.16,1.26-4.49,2.26-6.92,2.85-4.48,1.08-9.25,.34-13.37-1.65-3.36-1.62-6.3-4.07-8.43-7.14-2.21-3.18-3.48-6.92-3.98-10.74,0,0-1.48-8.2,4.1-14.2,0,0,3.96-.78,5.44,3.25,0,0-3.46,4.45-2.83,9.96,.22,1.95,.53,3.74,1.38,5.54,2.63,5.55,9.02,9.33,15.15,8.71,4.71-.48,9.51-3.38,11.46-7.8,.07-.15,.63-1.95,.58-1.95h-15.12l6.58-6.94Z"/>
            <path class="cls-13" d="M60,31.47c-4.23,4.23-8.35,6.96-9.21,6.1-.86-.86,1.88-4.98,6.1-9.21,4.23-4.23,8.35-6.96,9.21-6.1,.86,.86-1.88,4.98-6.1,9.21Z"/>
            <path class="cls-10" d="M54.55,28.26c-2.72,4.52-5.74,7.69-6.74,7.08-1.01-.61,.38-4.76,3.1-9.27,2.72-4.52,5.74-7.69,6.74-7.08,1.01,.61-.38,4.76-3.1,9.27Z"/>
            <path class="cls-9" d="M48.57,26.64c-1.4,4.31-3.25,7.56-4.15,7.27-.89-.29-.49-4.02,.91-8.32,1.4-4.31,3.25-7.56,4.15-7.27,.89,.29,.49,4.02-.91,8.32Z"/>
            <path class="cls-4" d="M43.05,26.72c-.19,3.97-1.2,7.15-2.26,7.1-1.05-.05-1.75-3.31-1.56-7.29,.19-3.97,1.2-7.15,2.26-7.1,1.05,.05,1.75,3.31,1.56,7.29Z"/>
            <path class="cls-2" d="M37.61,27.49c.76,3.63,.59,6.74-.38,6.94-.97,.2-2.36-2.58-3.12-6.21-.76-3.63-.59-6.74,.38-6.94,.97-.2,2.36,2.58,3.12,6.21Z"/>
            <path class="cls-5" d="M32.88,29.35c1.34,2.93,1.65,5.66,.69,6.1-.96,.44-2.82-1.58-4.16-4.51-1.34-2.93-1.65-5.66-.69-6.1,.96-.44,2.82,1.58,4.16,4.51Z"/>
            <path class="cls-12" d="M28.94,32.81c1.72,2.12,2.53,4.33,1.8,4.92-.73,.59-2.72-.65-4.44-2.78-1.72-2.12-2.53-4.33-1.8-4.92,.73-.59,2.72,.65,4.44,2.78Z"/>
          </g>
          <g>
            <path class="cls-3" d="M16.21,88.62c.62,1.87,.43,3.3-.07,3.99-.35,.47-1.19,.56-1.49,.04-.24-.45-.04-.97,.39-1.29,.47-.49,.97-1.72,.86-2.74h.32Zm-1.59-2.37s.41-.07,.56-.21c.82-.71,1.81-2,2.63-3.3-.56,.21-1.21,.45-1.88,.65-.13,.19-.28,.32-.43,.39l-.8-1.94s.36-.09,.5-.2c.91-1.01,2.07-3.68,2.44-5.09l2.15,1.06c-.07,.17-.28,.32-.65,.28-.75,1.21-2.05,2.91-3.23,4.03,.67,.02,1.53,.02,2.39,0,.39-.69,.73-1.34,.93-1.87l1.94,1.31c-.09,.15-.35,.26-.69,.19-.97,1.42-2.8,3.4-4.48,4.74,.93-.04,2.18-.13,3.53-.22-.15-.71-.37-1.4-.63-1.94l.22-.09c3.38,2.13,1.72,4.74,.52,3.43,.02-.28,0-.58-.04-.88-1.03,.35-2.41,.82-3.86,1.25-.13,.19-.28,.3-.45,.35l-.67-1.94Zm2.87,2.09c2.52,2.39,.88,4.78-.13,3.49,.21-1.1,.09-2.48-.13-3.43l.26-.06Zm7.52,.04c-.56,.63-1.4,1.64-2.61,2.87-.02,.24-.13,.47-.32,.54l-1.18-1.68c.21,1.05-.6,1.68-1.27,.99,.06-1.01-.34-2.26-.75-3.06l.22-.09c1.08,.69,1.6,1.42,1.75,2.05,.75-.28,2.43-1.05,4.05-1.83l.09,.21Zm5.22-6.38s1.06,.9,1.7,1.55c-.06,.21-.24,.3-.5,.3h-4.46v7.84c0,1.14-.24,1.87-2.13,2.03-.02-.47-.09-.84-.32-1.05-.22-.24-.58-.41-1.32-.52v-.28s1.47,.11,1.81,.11c.3,0,.37-.09,.37-.32v-7.82h-4.16l-.15-.54h5.52l.49-1.47h-3.41l-.75,.75-1.62-1.21c.21-.15,.52-.3,.82-.41,.6-1.29,1.38-3.36,1.68-4.36l2.24,.41c-.06,.24-.24,.43-.76,.43-.09,.3-.22,.63-.37,1.01h3.13l.76-.82,1.59,1.36c-.13,.15-.32,.21-.67,.22l-1.36,4.11h.95l.93-1.31Zm-8.19,2.69c3.86,1.16,2.41,3.88,1.06,2.76-.09-.9-.71-2-1.27-2.65l.21-.11Zm5.22-3.4l.76-2.31h-3.34c-.32,.8-.67,1.64-.95,2.31h3.53Zm4.22,4.35c-.09,.15-.28,.21-.65,.11-.71,.5-2.15,1.34-3.06,1.87l-.17-.19c.63-.86,1.53-2.31,2.01-3.13l1.87,1.34Zm-3.69,2.71c5.04,.71,4.14,4.46,2.48,3.36-.54-.97-1.4-2.33-2.61-3.17l.13-.19Z"/>
            <path class="cls-3" d="M39.73,84.3c-.13,.17-.3,.24-.71,.28-.26,1.98-.75,3.86-1.73,5.52,2.01,1.29,4.81,1.57,8.75,1.57,1.03,0,3.3,0,4.5-.02v.24c-.73,.13-1.06,.75-1.12,1.45h-3.53c-4.29,0-7.18-.47-9.22-2.35-.84,1.12-1.98,2.09-3.51,2.85l-.15-.26c1.29-.95,2.22-2.11,2.87-3.43-.86-1.1-1.55-2.59-2.09-4.51l.24-.13c.58,1.66,1.32,2.87,2.22,3.77,.62-1.51,.93-3.19,1.1-4.93h-1.53l-.62,.58-1.55-1.06c.17-.13,.43-.26,.67-.36,.71-1.25,1.68-3.28,2.2-4.61h-3.21l-.17-.54h3.36l.84-.86,1.66,1.51c-.15,.17-.47,.26-.86,.3-.52,1.19-1.49,3.19-2.18,4.5h1.23l.9-.91,1.62,1.4Zm9.59-4.55s.95,.9,1.49,1.49c-.06,.21-.24,.3-.5,.3h-2.05v2.63c-.02,.13-.84,.47-1.38,.47h-.26v-.63h-2.13v1.92h2.13l.91-1.23s1.1,.86,1.75,1.47c-.06,.21-.24,.3-.5,.3h-4.29v1.96h2.74l1.03-1.32s1.21,.9,1.94,1.57c-.06,.21-.26,.3-.52,.3h-5.19v1.85c0,.17-.71,.5-1.34,.5h-.35v-2.35h-4.12l-.15-.54h4.27v-1.96h-3.21l-.15-.54h3.36v-1.92h-2.98l-.17-.54h3.15v-1.92h-4.42l-.15-.54h4.57v-1.88h-3.1l-.17-.54h3.27v-2.03l2.39,.24c-.06,.26-.19,.45-.69,.52v1.27h1.94l.82-.9,1.77,1.36c-.13,.13-.41,.3-.76,.37v1.59h.24l.82-1.25Zm-4.83,1.25h2.13v-1.88h-2.13v1.88Zm2.13,.54h-2.13v1.92h2.13v-1.92Z"/>
            <path class="cls-3" d="M55.78,78.72c-1.12,1.27-2.46,2.18-3.82,2.78l-.21-.22c1.27-1.06,2.56-2.85,3.32-4.91l2.31,.95c-.09,.21-.34,.35-.76,.3-.13,.19-.26,.37-.39,.56h2.44l.88-1.12s.95,.78,1.53,1.36c-.06,.21-.22,.3-.48,.3h-4.81Zm-3.81,14.51c1.89-.99,3.81-2.7,4.72-4.03l2.09,1.27c-.11,.17-.3,.24-.71,.15-1.32,1.14-3.62,2.28-5.93,2.85l-.17-.24Zm4.59-10.95v3.1c.9-.13,1.85-.26,2.82-.41l.04,.26c-1.31,.52-3.19,1.21-5.8,2.07-.09,.24-.28,.39-.47,.43l-.84-1.83c.58-.06,1.49-.15,2.63-.3v-3.32h-2.13l-.15-.54h4.23l.71-.9c-.11-.02-.22-.06-.34-.11-.13-.56-.69-1.23-1.18-1.57l.17-.15c2.7-.06,2.57,1.59,1.72,1.83,.34,.26,.93,.75,1.36,1.14-.06,.21-.24,.3-.5,.3h-2.28Zm10.39,4.64s1.23,.97,1.98,1.68c-.06,.21-.24,.3-.52,.3h-7v4.44c0,.15-.8,.48-1.53,.48h-.34v-4.92h-6.96l-.15-.54h7.11v-1.53l2.56,.24c-.04,.24-.19,.43-.69,.5v.78h4.44l1.1-1.44Zm1.53-1.7c.37,.17,.45,.33,.45,.6,0,.54-.52,.86-1.9,.86h-.73c-1.03,0-1.17-.34-1.17-1.19v-3.32h-2.33v.69c0,.35-.04,.76-.19,1.16,2.01,.84,1.79,2.35,.65,2.13-.3-.32-.76-.67-1.29-1.03-.65,.75-1.81,1.44-3.84,1.92l-.15-.24c1.68-.71,2.5-1.51,2.89-2.33-.54-.3-1.1-.54-1.59-.71l.15-.24c.63,0,1.23,.06,1.74,.13,.06-.26,.07-.52,.07-.78v-.69h-1.44l-.17-.54h5.32l.76-.78,1.4,1.23c-.09,.11-.28,.21-.62,.26v2.78c0,.19,.04,.24,.24,.24h.76c.09-.02,.17-.02,.22-.13,.11-.17,.3-.78,.47-1.4l.22,.02,.06,1.38Zm-1.03-8.26s1.05,.84,1.72,1.45c-.06,.21-.24,.3-.5,.3h-5.73c-.82,1.01-1.79,1.79-2.78,2.33l-.22-.19c.86-1.04,1.72-2.74,2.22-4.48l2.29,.91c-.09,.21-.34,.35-.73,.3-.11,.2-.24,.39-.37,.58h3.15l.95-1.21Zm-4.92,12.65c6.85,.49,6.62,4.38,4.55,3.77-.95-1.23-3.1-2.8-4.68-3.58l.13-.19Zm1.03-10.54c3.38,.07,2.09,2.48,.8,1.6-.09-.52-.54-1.16-.95-1.47l.15-.13Z"/>
            <path class="cls-3" d="M74.36,82.92c3.53,1.62,2.14,4.07,.95,2.98-.07-.8-.52-1.81-.95-2.54v9.89c0,.19-.69,.6-1.25,.6h-.32v-7.84c-.58,1.25-1.31,2.43-2.2,3.45l-.26-.21c1.18-2.14,1.83-4.94,2.2-7.67h-1.87l-.15-.54h2.28v-4.59l2.26,.24c-.06,.28-.21,.45-.69,.52v3.82h.17l.84-1.21s.97,.86,1.53,1.45c-.06,.21-.22,.3-.48,.3h-2.05v1.32Zm1.49,10.15c1.17-1.12,2.22-2.91,2.67-4.18l2.11,1.06c-.09,.19-.26,.28-.67,.21-.86,1.12-2.28,2.37-3.92,3.13l-.19-.22Zm.67-14.74l-.13-.54h8.66l.99-1.25s1.12,.86,1.81,1.49c-.04,.21-.24,.3-.5,.3h-3.41v1.9h1.16l.78-.86,1.73,1.31c-.13,.15-.41,.32-.78,.39v3.28c-.02,.11-.8,.39-1.29,.39h-.17c.37,.28,1.03,.8,1.51,1.21-.06,.2-.24,.3-.5,.3h-8.71l-.15-.54h6.58l.99-1.18,.19,.15v-.56h-6.64v.65c0,.15-.67,.47-1.27,.47h-.22v-5.69l1.6,.67h1.21v-1.9h-3.43Zm9.59,8.32s1.1,.84,1.81,1.45c-.06,.21-.24,.3-.5,.3h-4.57v5.04c0,.07-.56,.39-1.42,.39h-.3v-5.43h-4.55l-.15-.54h8.69l.99-1.21Zm-7.48-3.06h1.32v-2.82h-1.32v2.82Zm3.97-5.26h-1.32v1.9h1.32v-1.9Zm-1.32,5.26h1.32v-2.82h-1.32v2.82Zm2.48,5.73c5.22,1.23,4.11,4.74,2.37,3.64-.37-1.21-1.57-2.63-2.54-3.49l.17-.15Zm.17-8.54v2.82h1.34v-2.82h-1.34Z"/>
            <path class="cls-3" d="M104.56,80.38s1.19,.91,1.92,1.59c-.06,.21-.26,.3-.52,.3h-16.55l-.15-.54h5.8c-.17-.04-.33-.13-.5-.28-.04-.78-.45-1.62-.84-2.16l.17-.11c2.91,.6,2.61,2.29,1.68,2.56h3.68c.37-.78,.73-1.79,.93-2.57h-9.64l-.15-.54h12.14l1.06-1.34s1.16,.91,1.89,1.59c-.06,.21-.24,.3-.51,.3h-4.74l2.24,.67c-.07,.22-.3,.37-.71,.34-.47,.47-1.18,1.06-1.87,1.57h3.62l1.04-1.34Zm-.28,8.6s1.21,.91,1.98,1.57c-.06,.21-.26,.3-.52,.3h-7.03v2.63c0,.09-.58,.39-1.49,.39h-.34v-3.02h-7.33l-.15-.54h7.48v-1.94h-2.97v.52c0,.17-.8,.56-1.53,.56h-.24v-6.66l1.88,.76h7.42l.86-.91,1.81,1.36c-.11,.13-.36,.28-.69,.34v4.29c-.02,.15-.91,.54-1.51,.54h-.3v-.8h-2.91v1.94h4.5l1.08-1.32Zm-10.37-4.89v1.57h7.7v-1.57h-7.7Zm0,3.73h7.7v-1.62h-7.7v1.62Zm2.33-11.55c3.95,.26,2.42,3.1,.91,2.03-.11-.69-.62-1.47-1.06-1.9l.15-.13Z"/>
          </g>
        </g>
      </g>
      <g>
        <circle class="cls-1" cx="217.41" cy="60.51" r="59.98"/>
        <g>
          <g>
            <path class="cls-3" d="M180.15,82.08l.39,.83-6.1,2.83-.39-.83,6.1-2.83Z"/>
            <path class="cls-3" d="M179.85,85.67l.41,.67-.59,.36c.37,.05,.67,.15,.91,.31,.24,.16,.44,.37,.61,.64,.36,.59,.4,1.12,.11,1.58-.16,.25-.45,.51-.87,.76l-2.69,1.63-.43-.72,2.64-1.6c.26-.16,.44-.32,.55-.49,.18-.28,.18-.59-.02-.92-.1-.17-.2-.29-.3-.38-.17-.16-.39-.26-.65-.3-.21-.03-.4-.02-.57,.03-.17,.05-.39,.16-.66,.33l-2.19,1.33-.43-.7,4.19-2.54Z"/>
            <path class="cls-3" d="M184.3,89.99l.51,.66-1.09,.83,.48,.62-.53,.41-.48-.62-2.54,1.95c-.14,.1-.19,.22-.17,.35,.01,.07,.06,.17,.16,.28,.02,.03,.05,.06,.08,.1s.07,.07,.11,.12l-.52,.4c-.08-.06-.15-.12-.23-.2-.07-.07-.14-.16-.22-.25-.24-.3-.32-.57-.24-.8,.07-.23,.23-.44,.48-.63l2.57-1.98-.4-.53,.53-.41,.4,.53,1.08-.83Z"/>
            <path class="cls-3" d="M187.25,95.67c.11,.35,.13,.67,.06,.97-.06,.29-.2,.57-.4,.84-.13,.19-.37,.46-.73,.8l-2.47-2.57c-.35,.36-.56,.72-.62,1.08-.07,.37,.06,.71,.38,1.04,.3,.31,.63,.45,1.02,.44,.22-.01,.43-.07,.62-.18l.56,.58c-.14,.11-.34,.2-.58,.26-.24,.07-.47,.09-.67,.09-.35,0-.68-.12-1-.32-.17-.11-.34-.25-.52-.43-.42-.44-.62-.96-.59-1.57,.03-.61,.33-1.19,.9-1.75,.57-.55,1.17-.84,1.82-.87,.65-.03,1.21,.19,1.68,.69,.24,.25,.41,.55,.52,.89Zm-1.18,1.55c.24-.27,.39-.52,.46-.76,.13-.44,.01-.84-.35-1.22-.26-.27-.58-.4-.95-.4-.37,0-.72,.15-1.03,.43l1.87,1.95Z"/>
            <path class="cls-3" d="M190.74,96.22l.63,.53-4.33,5.14-.63-.53,4.34-5.14Z"/>
            <path class="cls-3" d="M192.95,97.99l.66,.49-3.97,5.42-.66-.49,3.97-5.42Z"/>
            <path class="cls-3" d="M194.26,101.16l.71,.45-2.61,4.12-.71-.45,2.6-4.12Zm.99-1.56l.71,.45-.5,.79-.71-.45,.5-.79Z"/>
            <path class="cls-3" d="M199.09,104.04c.09,.16,.16,.37,.22,.63l.27-.55,.68,.34-1.97,3.99c-.28,.56-.57,.96-.9,1.2-.6,.45-1.32,.46-2.17,.04-.47-.23-.82-.53-1.03-.91s-.23-.79-.05-1.26l.75,.37c-.06,.21-.07,.4-.01,.56,.09,.25,.31,.46,.66,.63,.56,.28,1.03,.26,1.4-.05,.22-.18,.47-.58,.76-1.19-.26,.15-.52,.23-.78,.24-.26,0-.56-.07-.9-.24-.47-.23-.81-.61-.99-1.12-.19-.51-.09-1.16,.29-1.94,.36-.74,.83-1.22,1.39-1.46,.56-.24,1.1-.23,1.6,.02,.34,.17,.6,.4,.77,.7Zm-.3,.84c-.09-.37-.31-.64-.66-.82-.52-.26-.99-.19-1.42,.21-.23,.21-.45,.53-.66,.95-.24,.49-.33,.92-.26,1.28s.28,.62,.61,.79c.53,.26,1.02,.2,1.47-.17,.25-.21,.47-.5,.65-.86,.27-.54,.36-1,.26-1.38Z"/>
            <path class="cls-3" d="M205.02,106.27c.26,.26,.43,.53,.51,.83,.08,.29,.09,.59,.04,.92-.02,.23-.11,.58-.27,1.05l-3.39-1.11c-.14,.48-.15,.89-.04,1.25,.11,.35,.39,.6,.82,.74,.4,.13,.77,.1,1.1-.09,.19-.11,.34-.26,.47-.45l.77,.25c-.08,.16-.21,.33-.39,.51-.18,.17-.37,.3-.55,.39-.31,.15-.66,.22-1.03,.18-.2-.01-.42-.06-.66-.14-.58-.19-1-.56-1.26-1.11-.26-.55-.27-1.21-.02-1.97,.25-.75,.65-1.29,1.2-1.62,.56-.33,1.16-.39,1.81-.18,.33,.11,.62,.29,.88,.55Zm-.32,1.92c.08-.35,.1-.64,.05-.88-.09-.45-.38-.75-.88-.91-.36-.12-.7-.09-1.02,.09-.33,.18-.56,.47-.71,.86l2.56,.84Z"/>
            <path class="cls-3" d="M207.91,106.93l.77,.14-.12,.68c.28-.24,.56-.4,.83-.48,.28-.08,.57-.09,.88-.03,.68,.12,1.1,.44,1.26,.96,.09,.28,.09,.67,0,1.16l-.55,3.09-.82-.15,.54-3.04c.05-.29,.05-.54,0-.73-.09-.33-.33-.52-.7-.59-.19-.03-.35-.04-.48-.03-.23,.03-.45,.12-.66,.29-.16,.14-.28,.28-.35,.45s-.13,.4-.19,.72l-.45,2.53-.81-.14,.86-4.82Z"/>
            <path class="cls-3" d="M214.12,106.45l.83,.05-.09,1.36,.78,.05-.04,.67-.78-.05-.21,3.19c-.01,.17,.04,.29,.15,.35,.06,.04,.17,.06,.32,.07,.04,0,.08,0,.13,0,.05,0,.1,0,.16,0l-.04,.65c-.1,.02-.2,.03-.3,.04-.1,0-.21,0-.33,0-.38-.03-.64-.14-.76-.35-.12-.21-.18-.46-.15-.78l.21-3.24-.66-.04,.04-.67,.66,.04,.09-1.36Z"/>
            <path class="cls-3" d="M227.13,105.04l2.78-.85c.76-.23,1.36-.17,1.82,.18,.27,.21,.46,.48,.57,.83,.12,.41,.11,.77-.04,1.1-.08,.17-.21,.35-.4,.53,.37,.02,.66,.09,.87,.2,.38,.19,.64,.53,.79,1.03,.13,.41,.11,.83-.05,1.24-.24,.62-.78,1.06-1.63,1.32l-2.73,.84-1.98-6.42Zm3.29,1.96c.37-.11,.64-.25,.82-.42,.28-.26,.35-.6,.22-1.02-.13-.42-.39-.65-.78-.69-.22-.02-.52,.03-.9,.14l-1.57,.48,.61,1.99,1.6-.49Zm1.21,2.87c.54-.17,.88-.44,1.01-.82,.08-.24,.08-.5,0-.77-.14-.47-.45-.72-.92-.76-.25-.02-.56,.02-.93,.14l-1.74,.54,.7,2.26,1.89-.58Z"/>
            <path class="cls-3" d="M234.95,104.2l1.42,2.93c.11,.23,.23,.39,.37,.5,.26,.2,.56,.22,.91,.05,.5-.24,.73-.64,.69-1.19-.02-.29-.14-.66-.34-1.09l-1.05-2.17,.74-.36,2.14,4.41-.7,.34-.31-.65c-.01,.21-.06,.41-.15,.59-.17,.36-.45,.64-.84,.84-.62,.3-1.14,.29-1.57-.02-.23-.17-.44-.44-.62-.81l-1.45-3,.76-.37Z"/>
            <path class="cls-3" d="M238.6,100.21l.71-.44,.49,.79-.71,.44-.49-.79Zm.97,1.57l.71-.44,2.58,4.14-.71,.44-2.58-4.14Z"/>
            <path class="cls-3" d="M240.96,98.66l.67-.48,3.93,5.45-.67,.48-3.93-5.45Z"/>
            <path class="cls-3" d="M246.45,96.76c.17-.03,.4-.02,.69,.03l-1.65-1.85,.59-.53,4.49,5.03-.55,.49-.45-.51c.06,.35,.03,.67-.07,.94-.11,.27-.28,.52-.54,.75-.41,.36-.91,.5-1.51,.43s-1.16-.4-1.66-.97c-.48-.53-.75-1.11-.83-1.75-.08-.63,.14-1.17,.64-1.62,.28-.25,.57-.4,.86-.45Zm1.08,3.96c.4,.12,.78,.01,1.15-.31,.28-.25,.41-.58,.37-.99-.04-.41-.26-.84-.67-1.3-.41-.46-.81-.72-1.2-.77-.39-.05-.72,.04-.99,.29-.31,.27-.45,.62-.43,1.02,.02,.41,.24,.84,.65,1.3,.35,.39,.72,.65,1.13,.76Z"/>
            <path class="cls-3" d="M247.38,93.05l.56-.62,.69,.63-.56,.62-.69-.63Zm1.36,1.24l.56-.62,3.61,3.28-.56,.62-3.61-3.28Z"/>
            <path class="cls-3" d="M250.68,92.09l.46-.63,.56,.41c-.09-.36-.12-.68-.06-.96,.05-.28,.17-.55,.36-.81,.41-.56,.89-.8,1.42-.71,.29,.05,.64,.22,1.04,.51l2.53,1.86-.5,.67-2.49-1.83c-.24-.18-.46-.28-.66-.32-.33-.06-.61,.06-.84,.37-.11,.16-.19,.3-.24,.42-.08,.22-.09,.46-.03,.72,.05,.21,.13,.38,.25,.51s.3,.3,.56,.49l2.07,1.52-.49,.66-3.95-2.9Z"/>
            <path class="cls-3" d="M255.57,84.88c.17-.09,.38-.15,.64-.2l-.54-.29,.36-.67,3.93,2.11c.55,.29,.94,.61,1.17,.94,.42,.61,.41,1.34-.03,2.17-.25,.46-.56,.8-.94,1-.38,.2-.8,.21-1.26,0l.4-.74c.21,.07,.4,.08,.56,.03,.25-.08,.47-.29,.66-.64,.3-.55,.29-1.02,0-1.4-.18-.23-.56-.49-1.16-.81,.14,.26,.21,.52,.21,.79,0,.26-.09,.56-.27,.89-.25,.47-.64,.78-1.15,.95-.52,.17-1.16,.05-1.93-.36-.72-.39-1.19-.87-1.41-1.44-.22-.57-.19-1.1,.08-1.6,.18-.34,.42-.59,.72-.75Zm.83,.33c-.38,.08-.66,.29-.84,.63-.27,.51-.22,.98,.16,1.43,.2,.24,.51,.47,.92,.69,.49,.26,.91,.36,1.27,.3,.36-.06,.63-.26,.81-.59,.28-.52,.24-1.01-.12-1.47-.2-.26-.48-.49-.84-.68-.53-.29-.99-.39-1.37-.31Z"/>
          </g>
          <g>
            <path class="cls-3" d="M176.02,34.25c.13,.15,.24,.31,.35,.46,1.88-1.96,3.11-.55,2.17-.01-.55-.1-1.39,.05-2.04,.25,.45,.87,.52,1.95-.06,3.61h-.21c.34-1.71-.04-2.69-.81-3.51l-1.33,1.78-.32-.12,1.41-1.88c-.3-.28-.64-.55-1-.83l-.37,.49c.19,.58,.25,1.15,.21,1.7l-.18,.05c-.27-.74-.85-1.62-1.57-2.38l1.15-.86c.08,.12,.08,.29-.07,.49,.12,.22,.22,.43,.31,.64l1.08-1.45-.25-.92s.81-.23,1.35-.31c.09,.09,.06,.23-.03,.34l-1.02,1.36c.36,.3,.69,.57,.97,.87l.39-.53-.24-.93s.79-.21,1.35-.31c.08,.1,.06,.22-.03,.34l-1.25,1.67Zm2.8-6.66c.03,.12,0,.31-.1,.51l2.63,1.96c.06,.06-.09,.59-.3,.87l-.1,.14-.6-.45-1.16,1.55,.49,.37c.07,.05,.01,.55-.24,.89l-.09,.13-3.79-2.83,1.01-.59,1.06-1.41-.13-.75,1.33-.38Zm1.27,2.83l-2.14-1.6-1.16,1.55,2.14,1.6,1.16-1.55Zm.41,1.55l1.33-.38c.03,.11,.02,.3-.08,.49l2.92,2.18c.06,.06-.1,.6-.31,.88l-.11,.14-.53-.4-2.6,3.47,.3,.22c.08,.06,0,.57-.27,.93l-.09,.13-3.96-2.96,1.06-.63,2.49-3.32-.14-.76Zm-2.13,4.34l1.08,.81,2.59-3.47-1.08-.81-2.59,3.47Zm5.08-1.61l-1.14-.85-2.59,3.47,1.14,.85,2.59-3.47Z"/>
            <path class="cls-3" d="M188.41,21.74l-.45-.71-1.42,.89-.25-.23,1.5-.94-.42-.66-1.58,1-.25-.23,1.66-1.04-.57-.91,1.24-.62c.07,.13,.04,.27-.17,.45l.34,.55,.37-.23,.08-.8s.73,.06,1.23,.15c.04,.12-.02,.23-.15,.31l-1.35,.85,.42,.66,.39-.25,.08-.75s.68,.07,1.14,.15c.05,.12-.02,.23-.15,.31l-1.28,.81,.45,.71,.48-.3,.1-.82s.73,.06,1.24,.14l-.1-.1,1.29-.81-.45-.71-.95,.6-.25-.23,1.03-.65-.42-.66-1.13,.71-.25-.23,1.21-.76-.57-.91,1.27-.64c.06,.14,.03,.28-.18,.46l.34,.55,.61-.39,.09-.84s.76,.07,1.27,.17c.05,.12-.02,.23-.15,.31l-1.64,1.03,.42,.66,.56-.35,.09-.78s.7,.07,1.18,.15c.05,.12-.02,.23-.15,.31l-1.5,.94,.45,.71,.79-.49,.11-.83s.75,.05,1.25,.15c.05,.12,0,.22-.14,.3l-1.82,1.15,.25,.4c.04,.07-.24,.46-.56,.66l-.16,.1-.39-.62-1.22,.77-.13-.12c.03,.11-.03,.22-.17,.31l-1.5,.94,.29,.46c.05,.08-.23,.47-.55,.66l-.15,.1-.43-.69-1.67,1.05-.25-.23,1.75-1.1Zm7.13-2.32s.72,.08,1.21,.16c.05,.12-.03,.23-.15,.31l-1.18,.74,.68,1.07c.03,.07-.28,.55-.57,.73l-.15,.1-.22-.35-5.32,3.35-.26-.22,5.41-3.4-.45-.72-6.17,3.88-.25-.23,6.24-3.93-.43-.69-5.26,3.31-.25-.23,5.24-3.29,.14-.76,1.37,.13c-.02,.1-.1,.26-.26,.42l.35,.56,.19-.12,.1-.81Zm-5.22,6.42c.89,.8,.95,1.69,.67,2.17-.18,.3-.55,.51-.81,.31-.24-.2-.21-.51-.05-.77,.23-.38,.33-1.09,.03-1.61l.15-.1Zm6.21-2.06c.35-.09,.49-.04,.6,.12,.25,.39-.12,.72-2.14,1.99l-1.4,.88c-1.04,.66-1.35,.65-1.73,.04l-.92-1.47,1.27-.65c.06,.14,.02,.27-.14,.41l.65,1.03c.08,.12,.14,.13,.57-.14l1.35-.85c.54-.34,1.01-.63,1.17-.75,.14-.1,.18-.17,.18-.29,.02-.23-.06-.62-.2-1.2l.11-.07,.64,.95Zm-3.89,.18c2.18-1,2.52,.85,1.48,.82-.34-.37-1.02-.63-1.53-.69l.05-.14Zm3.25-1.59c2.64-1.02,3.08,1.09,1.91,1.05-.44-.49-1.3-.84-1.95-.93l.04-.12Z"/>
            <path class="cls-3" d="M207.28,14.91c-.06,.12-.15,.18-.39,.25,.07,1.21,0,2.39-.4,3.49,1.35,.53,3.05,.38,5.39-.07,.61-.12,1.97-.38,2.68-.53l.03,.14c-.42,.16-.55,.57-.5,1l-2.1,.41c-2.56,.49-4.33,.55-5.76-.34-.37,.76-.94,1.47-1.76,2.1l-.12-.14c.66-.72,1.08-1.51,1.32-2.38-.64-.56-1.22-1.37-1.76-2.45l.13-.11c.54,.92,1.12,1.56,1.76,1.99,.19-.97,.19-2.01,.09-3.06l-.91,.18-.3,.42-1.04-.46c.09-.1,.23-.2,.36-.29,.28-.83,.62-2.15,.78-3l-1.91,.37-.16-.3,2-.39,.4-.61,1.16,.71c-.07,.12-.25,.21-.48,.28-.17,.77-.52,2.07-.78,2.93l.73-.14,.43-.65,1.13,.65Zm5.19-3.82s.67,.42,1.06,.72c0,.13-.11,.21-.27,.24l-1.22,.24,.3,1.57c0,.08-.45,.37-.77,.44l-.16,.03-.07-.38-1.27,.25,.22,1.14,1.27-.25,.4-.84s.75,.38,1.21,.68c0,.13-.11,.21-.27,.24l-2.56,.49,.23,1.17,1.63-.32,.46-.91s.82,.39,1.34,.71c0,.13-.12,.21-.28,.24l-3.09,.6,.21,1.1c.02,.1-.36,.38-.74,.45l-.21,.04-.27-1.4-2.46,.48-.15-.31,2.54-.49-.23-1.17-1.91,.37-.15-.31,2-.39-.22-1.14-1.78,.34-.16-.3,1.88-.36-.22-1.14-2.63,.51-.15-.31,2.72-.53-.22-1.12-1.85,.36-.16-.3,1.95-.38-.23-1.21,1.45-.13c0,.16-.06,.29-.35,.39l.15,.76,1.16-.22,.39-.63,1.21,.61c-.06,.09-.21,.23-.41,.31l.18,.94,.14-.03,.34-.84Zm-2.73,1.3l1.27-.25-.22-1.12-1.27,.25,.22,1.12Zm1.33,.08l-1.27,.25,.22,1.14,1.27-.25-.22-1.14Z"/>
            <path class="cls-3" d="M220.66,18.97c1.23-.39,2.56-1.21,3.25-1.9l1.11,.98c-.09,.09-.2,.11-.44,.01-.91,.54-2.41,.97-3.85,1.07l-.07-.16Zm9.63-2.16s.63,.71,1,1.22c-.06,.12-.18,.15-.34,.12l-4.18-.75-.48,2.65c-.02,.09-.53,.2-.97,.13l-.2-.04,.53-2.94-4.16-.75-.03-.34,4.25,.76,.16-.91,1.5,.42c-.05,.14-.16,.24-.47,.23l-.08,.47,2.65,.48,.81-.74Zm-5.71-3.89l-.33,1.85c.55,.02,1.13,.04,1.73,.06v.16c-.84,.17-2.04,.38-3.7,.62-.08,.14-.21,.2-.32,.21l-.31-1.18c.35,.03,.91,.07,1.61,.1l.36-1.99-1.27-.23-.03-.34,2.53,.45,.52-.46c-.06-.02-.13-.06-.19-.1-.02-.35-.28-.81-.53-1.06l.12-.07c1.62,.26,1.37,1.22,.83,1.28,.17,.19,.48,.55,.69,.83-.06,.12-.18,.15-.33,.12l-1.36-.24Zm-.09-2.21c-.81,.64-1.71,1.04-2.58,1.25l-.1-.16c.87-.5,1.83-1.43,2.51-2.58l1.28,.82c-.08,.11-.24,.18-.49,.1-.1,.1-.2,.2-.29,.29l1.46,.26,.64-.58s.48,.57,.77,.98c-.06,.12-.17,.15-.32,.13l-2.88-.52Zm6.9,5.25c.2,.14,.23,.25,.2,.4-.06,.32-.4,.46-1.23,.31l-.43-.08c-.61-.11-.67-.33-.57-.84l.36-1.98-1.39-.25-.07,.41c-.04,.21-.1,.45-.24,.67,1.11,.72,.82,1.6,.16,1.34-.14-.22-.38-.48-.66-.75-.47,.38-1.23,.66-2.5,.74l-.06-.16c1.08-.24,1.66-.64,1.98-1.08-.29-.24-.6-.44-.87-.59l.11-.13c.38,.07,.73,.17,1.02,.26,.06-.15,.1-.3,.13-.46l.07-.41-.86-.15-.04-.34,3.18,.57,.54-.39,.71,.89c-.07,.06-.19,.09-.4,.09l-.3,1.66c-.02,.11,0,.15,.12,.17l.24,.04,.21,.04c.06,0,.1,0,.15-.05,.08-.09,.26-.44,.43-.79l.13,.04-.11,.83Zm.27-5.05s.53,.61,.87,1.05c-.06,.12-.18,.15-.33,.12l-3.42-.61c-.6,.51-1.26,.88-1.91,1.1l-.11-.14c.62-.53,1.32-1.46,1.81-2.44l1.27,.79c-.08,.11-.24,.18-.47,.1-.09,.11-.19,.21-.28,.31l1.89,.34,.7-.62Zm-4.3,7.03c4.04,1.02,3.49,3.33,2.32,2.74-.44-.84-1.55-2-2.42-2.64l.1-.1Zm1.74-6.19c2.01,.41,.98,1.71,.31,1.04,0-.32-.2-.75-.41-.98l.1-.06Z"/>
            <path class="cls-3" d="M241.61,18.73c1.32,1.95-.17,2.78-.45,1.85,.21-.44,.3-1.1,.31-1.61l-3.12,5.12c-.06,.1-.55,.09-.84-.08l-.16-.1,2.47-4.06c-.69,.47-1.44,.85-2.23,1.09l-.07-.19c1.28-.74,2.51-1.99,3.56-3.28l-.97-.59,.09-.33,1.18,.72,1.45-2.38,1.09,.84c-.12,.13-.25,.17-.52,.05l-1.21,1.98,.09,.05,.82-.36s.23,.75,.33,1.24c-.09,.09-.21,.08-.34,0l-1.06-.65-.42,.69Zm-2.43,5.73c.96-.21,2.07-.81,2.7-1.32l.76,1.22c-.11,.07-.22,.06-.41-.11-.8,.31-1.93,.51-3.02,.39l-.03-.17Zm7.34-.09s.31,.78,.48,1.32c-.09,.09-.22,.08-.36,0l-2.37-1.44-1.59,2.61s-.41,.03-.86-.24l-.15-.09,1.71-2.81-2.36-1.43,.09-.33,4.51,2.74,.9-.32Zm-2.35-7.33l.1-.32,4.49,2.73,.91-.34s.31,.8,.47,1.34c-.08,.09-.22,.08-.35,0l-1.77-1.08-.6,.99,.6,.36,.68-.2,.49,1.22c-.12,.04-.31,.04-.53-.04l-1.04,1.7c-.05,.05-.54-.05-.79-.2l-.09-.05c.1,.26,.28,.74,.4,1.1-.09,.09-.22,.08-.36,0l-4.51-2.75,.09-.33,3.41,2.08,.88-.3,.05,.14,.18-.29-3.44-2.09-.21,.34c-.05,.08-.49,.03-.8-.16l-.12-.07,1.79-2.95,.62,.85,.63,.38,.6-.99-1.78-1.08Zm-.57,3.39l.69,.42,.89-1.46-.69-.42-.89,1.46Zm.85,4.59c2.32,2.28,.63,3.75,.08,2.63,.19-.75,.02-1.86-.22-2.61l.13-.02Zm.52-3.75l.69,.42,.89-1.46-.69-.42-.89,1.46Zm2.34-2.31l-.69-.42-.6,.99,.69,.42,.6-.99Zm-.08,1.68l-.89,1.46,.7,.42,.89-1.46-.7-.42Z"/>
            <path class="cls-3" d="M257.34,37.93s0,.92-.02,1.53c-.12,.05-.24-.01-.34-.14l-2.6-3.38-1.26,.97s-.4-.13-.74-.57l-.12-.16,1.45-1.12-2.71-3.52,.2-.27,2.77,3.59,.93-.72-1.1-1.43-.25,.19c-.08,.06-.57-.18-.84-.53l-.09-.12,3.2-2.47,.33,1.19,2.75,3.57,.76,.07,.02,1.37c-.1,0-.27-.07-.42-.21l-2.06,1.59c-.08,.05-.6-.24-.82-.53l-.11-.14,.39-.3-1.08-1.4-.93,.72,1.66,2.16,1.04,.03Zm-3.28-5.41l2.85,3.7,.78-.6-2.85-3.7-.78,.6Zm7.52,2.36s0,.91-.05,1.51c-.12,.05-.24-.01-.34-.14l-6.13-7.95,.2-.27,2.15,2.79c-.04-.09-.06-.21-.05-.35,.36-.31,.61-.82,.73-1.2l.12,.04c.79,1.62-.14,2.1-.61,1.75l1.36,1.77c.52-.11,1.13-.31,1.58-.51l-3.57-4.63,.2-.27,4.5,5.84h1.04s-.01,.91-.06,1.51c-.12,.05-.23,0-.33-.13l-1.75-2.28,.51,1.32c-.14,.05-.29,0-.42-.22-.4-.05-.95-.17-1.44-.32l1.34,1.74h1.03Zm-5.73-3.74l-.75,.58,2.85,3.7,.75-.58-2.85-3.7Zm4.62-1.77c1.34,2-.59,2.31-.64,1.19,.29-.31,.48-.84,.52-1.22l.12,.02Z"/>
          </g>
          <g>
            <path class="cls-7" d="M200.67,37.16s3.38,2.08,3.63,3.72l10.39-9.35,26.74,24.84h-8.83v23.02l-20.86-.52,28.91,5.63v-23.45h14.02l-40.59-36.44-13.41,12.55Z"/>
            <circle class="cls-14" cx="196.08" cy="46.51" r="7.24"/>
            <path class="cls-8" d="M242.81,72.82v-10.73l10.9,10.73h-2.68c.11,0,.31,1.3,.33,1.39,.19,1.16,.22,2.36,.08,3.53-.47,3.92-2.9,7.14-6.15,9.28-4.96,3.27-10.24,5.49-16.1,6.52-4.98,.88-10.07,1.05-15.1,.78-2.52-.13-5.04-.38-7.55-.72,0,0-19.21-3.63-22.16-14.28,0,0-3.46-8.83,8.14-13.76,0,0,1.64-.52,2.86-.69v2.68s-5.8,3.55-5.8,7.96c0,0-1.47,6.92,10.04,11.42,0,0,14.8,7.88,36.61,.17,2.07-.73,4.04-2.13,5.6-3.66,1.12-1.1,2.07-2.37,2.75-3.78,.6-1.24,1.06-2.62,1.19-4.02,.02-.2-.02-2.92-.37-2.9l-2.6,.09Z"/>
            <polygon class="cls-14" points="180.15 61.91 185.17 56.29 202.22 56.29 202.22 79.39 229.31 84.15 195.39 84.15 195.39 61.65 180.15 61.91"/>
          </g>
        </g>
      </g>
    </g>
  </g>
</svg>